<svg xmlns="http://www.w3.org/2000/svg" viewBox="0 0 638.97 470.75"><defs><style>.cls-1{fill:#c48f5f;}.cls-2{fill:#c45933;}.cls-3{fill:#dba46e;}.cls-4{fill:#d56d42;}.cls-5{fill:#dd7e54;}.cls-6{fill:#492513;}.cls-7{fill:#fff;}</style></defs><title>golfart</title><g id="Layer_12" data-name="Layer 12"><polygon class="cls-1" points="165.63 348.16 157.58 343.01 150.66 341.84 152.11 347.16 137.82 346.99 140.1 351.08 135.44 353.6 139.12 357.23 135.32 361.08 140 362.31 136.16 367.6 155.99 370.72 166.08 366.16 166.79 349.24 165.63 348.16"/><polygon class="cls-2" points="216.65 301.38 187.37 336.48 165.63 348.16 164.01 367.12 217.33 352.51 245.88 331.09 247.66 305.49 230.81 297.71 216.65 301.38"/><polygon class="cls-2" points="202.41 254.74 209.02 236.36 197 214.62 180.99 236.36 180.99 260.31 202.41 254.74"/><polygon class="cls-2" points="344.23 295.94 324.45 284.07 298.2 350.59 329.14 372.89 287.12 370.67 302.67 384.37 362.14 381.44 366.65 372.69 339.76 333.13 344.23 295.94"/><polygon class="cls-3" points="399.31 255.81 411.32 237.31 397.63 211.78 340.2 176.16 308.52 127.34 337.99 79.81 409.36 64.17 430.92 104.39 429.96 134.95 395.06 146.75 440.45 174.89 462.62 216.25 433.81 262.71 408.12 272.24 399.31 255.81"/><polygon class="cls-4" points="246.59 258.95 214.3 248.35 173.58 258.95 166.98 285.56 159.96 305.85 168.37 320.41 193.39 324.41 246.59 308.47 259.51 284.78 246.59 258.95"/><polygon class="cls-4" points="233.03 260.31 242.94 232.35 261.71 221.52 266.52 248.35 259.62 260.31 249.2 262.55 233.03 260.31"/><polygon class="cls-4" points="240.29 336.64 267.68 356.03 309.35 360.12 358.25 348.05 393.79 333.8 403.65 274.4 405.5 257.18 350.23 231.57 298.86 249.58 273.73 264.13 246.16 269.23 228.78 293.06 240.29 336.64"/><polygon class="cls-5" points="418.39 272.79 378.65 253.37 349.36 264.86 347.35 308.74 365.06 342.22 394.62 353.16 366.06 386.27 364.19 398.66 386.87 397.32 444.35 338.94 442.4 317.83 431.73 306.77 418.39 272.79"/><polygon class="cls-5" points="238.68 256.35 253.38 237.47 259.51 226.84 262.9 248.35 257.62 256.31 246.59 258.95 238.68 256.35"/><polygon class="cls-3" points="382.29 379.9 359.68 387.16 352.88 404.53 359.29 399.86 357.96 408.67 367.27 401.03 372.75 405.4 378.32 398.79 386.87 397.32 387.52 386.88 382.29 379.9"/><polygon class="cls-1" points="298.69 371.4 286.41 368.18 263.96 378.24 276.01 377.57 271.69 385.16 286.57 383 292.7 385.47 302.67 384.37 301.54 375.59 298.69 371.4"/><polygon class="cls-6" points="225.02 286.38 214.04 276.64 199.16 283.38 192.32 295.22 214.04 299.82 223.29 294.49 225.02 286.38"/><polygon class="cls-6" points="171.04 292.78 169.69 274.64 163.56 278.18 159.96 287.03 162.69 294.75 171.04 292.78"/><polygon class="cls-7" points="213.85 279.46 220.56 285.61 215.53 287.23 206.59 283.35 213.85 279.46"/><polygon class="cls-7" points="167.49 279.46 168.33 286.38 165.98 285.56 164.56 279.18 167.49 279.46"/><polygon class="cls-6" points="180.99 304.75 173.04 305.65 168.33 304.75 164.56 302.23 161.97 306.04 164.56 306.04 164.56 308 168.33 311.32 173.9 311.32 176.92 308.15 179.19 309.46 181.9 306.77 180.99 304.75"/><polygon class="cls-3" points="221.31 368.68 211.78 367.95 205.13 370.2 208.93 374.19 196.26 380.82 200.21 383.33 197.29 387.76 202.25 389.22 200.72 394.41 205.43 393.27 204.55 399.75 223.5 393.12 230.23 384.32 222.84 369.08 221.31 368.68"/><polygon class="cls-6" points="192.23 271.61 196.57 275.11 207.45 276.16 195.21 277.67 192.23 271.61"/><polygon class="cls-5" points="244.11 303.32 234.93 348.1 221.31 368.68 228.85 386.15 268.91 348.04 283.91 315.66 273.37 292.26 254.84 293.39 244.11 303.32"/></g></svg>