<svg xmlns="http://www.w3.org/2000/svg" viewBox="0 0 638.97 470.75"><defs><style>.cls-1{fill:#c9cacc;}.cls-2{fill:#e1e2e3;}.cls-3{fill:#f5f6f6;}.cls-4{fill:#492513;}.cls-5{fill:#fff;}.cls-6{fill:#f6a9cb;}</style></defs><title>golfart</title><g id="Layer_13" data-name="Layer 13"><polygon class="cls-1" points="205.62 238.15 218.74 179.14 256.47 132.62 296.64 124.38 300.34 144.28 274.26 170.79 235.81 213.3 223.5 250.53 205.62 238.15"/><polygon class="cls-1" points="271.43 297.35 251.96 271.73 232.69 274.18 216.06 296.24 165.26 334.85 139.81 341.41 144.27 355.54 166.6 364.91 211.86 343.58 249.33 326.2 271.43 297.35"/><polygon class="cls-2" points="454.97 188.92 421.65 131.21 359.78 131.21 302.67 147.56 283.31 199.8 254.37 249.93 221.31 280.35 247.66 305.93 317.14 341.22 387.52 294.99 444.35 252.26 454.97 188.92"/><polygon class="cls-3" points="379.39 90.52 349.39 102.68 349.39 126.48 369.86 147.56 410.04 141.33 421.75 121.04 410.04 94.53 379.39 90.52"/><polygon class="cls-3" points="433.21 168.24 395.85 168.24 366.65 197.08 366.65 235.37 385.57 262.76 416.05 280.35 433.21 290.26 433.21 330.35 418.04 356.63 418.04 371.14 444.35 375.22 462.62 334.43 469.93 270.19 469.93 238.15 448.77 225.93 454.97 188.92 433.21 168.24"/><polygon class="cls-3" points="347.35 292.27 319.49 276.18 302.67 285.89 295.87 312.67 263.96 367.93 243.03 383.83 252.61 395.14 276.83 395.14 310.31 357.95 338.14 327.43 347.35 292.27"/><polygon class="cls-1" points="379.16 300.48 379.16 321.41 319.49 375.22 301.5 375.22 301.5 367.73 338.14 327.43 379.16 300.48"/><polygon class="cls-2" points="297.97 263.11 255.59 227.09 199.8 227.09 175.78 253.23 175.78 263.11 160.19 282.18 165.13 297.41 183.53 312.07 220.99 325.27 265.19 315.25 293.58 294.27 297.97 263.11"/><polygon class="cls-3" points="250 241.77 282.39 190.73 333.69 159.8 374.27 165.7 370.98 185.68 337.45 201.74 286.84 228.66 262.61 259.49 250 241.77"/><polygon class="cls-4" points="239.74 265.3 228.77 255.56 213.88 262.3 207.04 274.14 228.77 278.74 238.01 273.4 239.74 265.3"/><polygon class="cls-4" points="177.76 270.7 176.41 252.56 170.28 256.1 166.68 264.95 169.41 272.67 177.76 270.7"/><polygon class="cls-5" points="228.57 258.38 235.28 264.53 230.25 266.15 221.31 262.27 228.57 258.38"/><polygon class="cls-5" points="174.21 257.38 175.05 264.3 172.7 263.48 171.28 257.1 174.21 257.38"/><polygon class="cls-6" points="184.7 283.67 176.76 284.57 172.04 283.67 168.27 281.15 165.68 284.95 168.27 284.95 168.27 286.92 172.04 290.24 177.61 290.24 180.63 287.07 182.9 288.38 185.62 285.69 184.7 283.67"/><polygon class="cls-4" points="206.95 250.53 211.29 254.03 222.17 255.08 209.93 256.59 206.95 250.53"/></g></svg>