<svg xmlns="http://www.w3.org/2000/svg" viewBox="0 0 1336.97 1751.06"><defs><style>.cls-1{fill:#004655;}.cls-2{fill:#e5cfae;}.cls-3{fill:#f4e3c9;}.cls-4{fill:#75482a;}.cls-5{fill:#5e341d;}.cls-6{fill:#492513;}.cls-7,.cls-8{fill:#fffbd3;}.cls-7{opacity:0.3;}.cls-8{opacity:0.2;}.cls-9{fill:#d1b599;}.cls-10{fill:#b59678;}.cls-11{fill:#a5856a;}.cls-12{fill:#c1a084;}.cls-13{opacity:0.16;}.cls-14{fill:#d99b30;}.cls-15,.cls-16{fill:#e8b121;}.cls-15{stroke:#fac746;stroke-miterlimit:10;stroke-width:4.04px;}.cls-17{fill:#fffbf5;}</style></defs><title>golfart</title><g id="Layer_15" data-name="Layer 15"><polyline class="cls-1" points="1339.51 699.27 638.11 699.27 2.53 1528.65 -18.35 1771.25 1395.36 1786.37 1339.51 771.33"/><polyline class="cls-2" points="635.57 303.6 635.58 725.74 -36.42 1507.21 -80.34 146.01 635.57 303.6"/></g><g id="Layer_7" data-name="Layer 7"><rect class="cls-3" x="635.58" y="334.42" width="701.41" height="341.04"/><rect class="cls-4" x="635.57" y="276.69" width="701.41" height="57.73"/><rect class="cls-5" x="635.57" y="290.61" width="701.41" height="10.32"/><rect class="cls-5" x="635.57" y="307.51" width="701.41" height="19.46"/><rect class="cls-4" x="635.58" y="675.46" width="701.41" height="57.73"/><rect class="cls-5" x="635.58" y="689.38" width="701.41" height="10.32"/><rect class="cls-5" x="635.58" y="706.28" width="701.41" height="19.46"/><polygon class="cls-5" points="0 1569.79 635.57 733.18 635.58 675.46 0 1393.82 0 1569.79"/><polygon class="cls-6" points="0 1452.35 635.58 699.7 635.58 689.38 0 1417.11 0 1452.35"/><polygon class="cls-6" points="0 1535.66 635.58 725.74 635.58 706.28 0 1467.79 0 1535.66"/><polygon class="cls-5" points="-0.01 83.39 635.57 276.71 635.57 334.42 -0.01 203.32 -0.01 83.39"/><polygon class="cls-6" points="-0.01 165.81 635.57 310.19 635.57 320.51 -0.01 180.03 -0.01 165.81"/><polygon class="cls-6" points="-0.01 103.52 635.57 284.14 635.57 303.6 -0.01 150.37 -0.01 103.52"/></g><g id="Layer_14" data-name="Layer 14"><ellipse class="cls-7" cx="1166.77" cy="446.96" rx="40.4" ry="51.35"/><ellipse class="cls-8" cx="1165.8" cy="425.43" rx="56.7" ry="72.08"/><polyline class="cls-9" points="751.66 399.96 969.31 396.56 969.31 464.21 921.83 459.84 895.1 479.8 863.27 465.18 828.57 471.87 804.84 463.53 774.88 444.96 754.26 451.26 751.66 399.96"/><polygon class="cls-2" points="971.65 435.24 972.58 423.84 967.25 419.71 958.9 419.71 957.39 422.32 951.68 416.36 945.57 415.07 937.83 416.11 933.86 422.29 932.58 429.51 930.16 427.18 925.08 427.02 920.76 429.82 919.83 433.12 920.76 438.79 918.06 434.46 912.03 434.27 907.58 437.18 907.49 442.95 904.08 442.46 899.98 445.44 898.65 450.67 900.74 454.78 894.72 455.28 892.12 459.38 892.73 463.46 898.23 474.05 933.86 470.63 971.55 451.38 971.65 435.24"/><polygon class="cls-2" points="757.29 432.05 756.36 420.65 761.69 416.53 770.04 416.53 771.54 419.13 777.26 413.18 783.37 411.89 791.1 412.92 795.08 419.11 796.36 426.32 798.78 424 803.86 423.83 808.17 426.64 809.11 429.93 808.17 435.61 810.88 431.27 816.91 431.08 821.36 434 821.45 439.76 824.86 439.27 828.95 442.25 830.28 447.49 828.2 451.6 834.22 452.1 836.82 456.19 836.21 460.27 830.71 470.86 795.08 467.44 757.39 448.19 757.29 432.05"/><polygon class="cls-5" points="865.68 482.99 861.51 482.13 858.85 483.5 854.15 482.53 851.67 485.53 847.21 484.66 843.27 486.69 840.55 484.94 836.38 485.25 837.94 482.82 835.39 482.7 837 480.18 834.11 476.95 836.79 476.5 834.27 473.54 837 472.13 834.42 470.48 836.72 468.57 835.57 466.34 838.01 466.46 836.41 464.1 838.88 463.23 838.28 460 841.07 461 840.63 456.7 843.94 458.83 846.11 454.72 847.34 457.46 850.06 454.91 850.83 457.63 852.49 455.05 853.89 457.77 854.75 456.42 856.53 458.79 858.69 456.61 859.41 460.26 862.41 458.72 862.28 461.38 865.62 462.2 864.6 463.8 867.25 465.5 865.03 467.15 868.43 469.06 865.77 470.43 868.25 472.94 866.11 474.05 868.11 475.77 864.56 476.97 867.95 479.15 865.81 480.25 867.81 482.1 864.71 481.49 865.68 482.99"/><polygon class="cls-6" points="752.82 466.67 756.43 460.42 754.4 460.42 757.39 457.9 754.59 453.05 757.39 453.05 754.4 448.19 757.39 448.19 754.4 440.66 758.58 440.66 758.58 437.88 761.16 437.88 759.59 433.11 763.88 434.68 762.3 430.26 765.01 432.23 764.56 425.62 768.32 430.09 771.1 424.18 773.13 427.69 776.73 425.62 776.73 428.74 782.14 425.62 782.14 428.35 787.78 428.35 785.81 431.76 790.76 430.26 789.37 435.89 792.75 435.89 791.55 439.63 795.24 439.63 793.09 443.36 796.33 445.23 793.44 446.9 796.33 448.57 794.56 451.63 798.22 455.78 794.14 455.78 795.36 457.9 790.36 457.9 752.82 466.67"/><polygon class="cls-6" points="747.14 499.18 747.14 455.43 758.42 449.56 761.28 451.21 763.66 447.09 765.08 449.56 767.76 447.09 770.56 449.56 770.56 443.19 775.21 446.75 777.26 443.19 779.45 446.55 782.66 444.69 781.82 450.5 786.39 449.56 784.6 454.05 789.32 452.92 787.74 457.26 791.69 454.23 790.73 449.56 794.95 451.99 792.18 447.2 798 447.85 798.2 442.4 802.34 446.75 804.85 442.4 805.7 447.34 810.28 444.7 811.7 448.72 817.2 445.17 817.85 450.69 822.87 449.56 822.08 454.05 826.44 457.26 822.87 459.33 826.44 461.39 824.78 464.27 830.39 466.01 827.49 469 830.71 470.86 828.91 473.66 832.13 479.25 776.5 508.77 750.58 523.68 747.14 499.18"/><polygon class="cls-6" points="870.33 512 866.72 505.74 868.75 505.74 865.76 503.22 868.56 498.38 865.76 498.38 868.75 493.51 865.76 493.51 868.75 485.99 864.57 485.99 864.57 483.21 861.99 483.21 863.56 478.44 859.28 480.01 860.85 475.59 858.14 477.56 858.6 470.94 854.84 475.42 852.06 469.5 850.03 473.02 846.43 470.94 846.43 474.07 841.01 470.94 841.01 473.67 835.37 473.67 837.34 477.09 832.39 475.59 833.78 481.22 830.41 481.22 831.6 484.95 827.91 484.95 830.07 488.69 826.82 490.56 829.71 492.23 826.82 493.89 828.59 496.96 824.93 501.11 829.02 501.11 827.79 503.22 832.79 503.22 870.33 512"/><polygon class="cls-6" points="976.08 500.5 976.08 458.99 965.38 453.42 962.66 454.98 960.4 451.08 959.05 453.42 956.51 451.08 953.85 453.42 953.85 447.38 949.44 450.75 947.5 447.38 945.42 450.56 942.37 448.8 943.18 454.31 938.83 453.42 940.54 457.68 936.06 456.61 937.56 460.73 933.81 457.85 934.72 453.42 930.72 455.73 933.34 451.18 927.82 451.8 927.63 446.63 923.7 450.75 921.32 446.63 920.51 451.31 916.17 448.81 914.82 452.63 909.61 449.25 908.98 454.5 904.22 453.42 904.97 457.68 900.83 460.73 904.22 462.69 900.83 464.64 902.41 467.38 897.09 469.03 899.84 471.87 896.78 473.63 898.5 476.29 895.43 481.59 948.22 509.6 972.81 532.15 976.08 500.5"/><polygon class="cls-5" points="820.03 492.04 824.6 491.09 827.5 492.59 832.65 491.53 835.36 494.82 840.24 493.86 844.55 496.08 847.53 494.16 852.09 494.5 850.38 491.85 853.17 491.71 851.4 488.96 854.57 485.42 851.63 484.93 854.39 481.69 851.41 480.16 854.23 478.34 851.71 476.26 852.97 473.82 850.3 473.95 852.06 471.37 849.35 470.42 850 466.88 846.96 467.97 847.43 463.28 843.82 465.6 841.44 461.1 840.1 464.1 837.12 461.31 836.27 464.28 834.47 461.47 832.93 464.44 831.99 462.96 830.04 465.55 827.68 463.17 826.88 467.17 823.61 465.48 823.75 468.39 820.1 469.29 821.22 471.04 818.31 472.9 820.75 474.7 817.02 476.79 819.93 478.29 817.22 481.04 819.56 482.25 817.37 484.14 821.26 485.45 817.55 487.83 819.89 489.04 817.7 491.06 821.1 490.4 820.03 492.04"/><polygon class="cls-5" points="862.18 492.06 867.64 490.93 871.11 492.73 877.26 491.45 880.51 495.38 886.33 494.24 891.48 496.89 895.05 494.6 900.5 495.01 898.46 491.83 901.79 491.67 899.68 488.38 903.46 484.15 899.95 483.56 903.25 479.7 899.68 477.86 903.06 475.69 900.05 473.2 901.55 470.29 898.36 470.44 900.46 467.36 897.22 466.22 898 461.99 894.37 463.3 894.94 457.69 890.61 460.47 887.77 455.09 886.16 458.67 882.6 455.34 881.6 458.89 879.43 455.53 877.61 459.08 876.47 457.31 874.14 460.41 871.32 457.56 870.38 462.34 866.46 460.32 866.63 463.8 862.26 464.88 863.6 466.96 860.13 469.19 863.04 471.35 858.59 473.84 862.07 475.63 858.83 478.92 861.63 480.36 859 482.62 863.65 484.18 859.21 487.03 862.01 488.48 859.4 490.89 863.46 490.1 862.18 492.06"/><polygon class="cls-5" points="950.96 477.67 946.67 476.78 943.95 478.19 939.12 477.19 936.58 480.27 932 479.38 927.96 481.46 925.16 479.66 920.88 479.98 922.49 477.49 919.87 477.36 921.53 474.78 918.56 471.46 921.31 471 918.73 467.96 921.52 466.52 918.88 464.82 921.24 462.86 920.06 460.58 922.56 460.7 920.91 458.28 923.46 457.38 922.84 454.06 925.7 455.09 925.25 450.69 928.65 452.87 930.88 448.65 932.13 451.46 934.93 448.84 935.72 451.63 937.42 448.99 938.85 451.78 939.74 450.39 941.57 452.82 943.78 450.59 944.53 454.34 947.6 452.76 947.47 455.49 950.9 456.33 949.85 457.97 952.57 459.72 950.29 461.41 953.78 463.37 951.05 464.77 953.59 467.35 951.39 468.48 953.45 470.26 949.81 471.48 953.29 473.72 951.09 474.85 953.14 476.75 949.96 476.13 950.96 477.67"/><polygon class="cls-2" points="752.47 467.58 788.87 471.9 815.34 481.54 861.78 505.32 895.45 508.96 928.91 504.15 966.55 502.38 902.42 542.41 839.05 540.23 790.59 528.92 750.75 507.45 752.47 467.58"/><polygon class="cls-9" points="975.1 496.79 946.49 501.91 914.62 515.45 881.03 522.88 843.84 525.92 796.41 510.15 752 496.79 745.31 516.35 748.22 582.49 978.96 586.74 975.1 496.79"/><polygon class="cls-2" points="975.69 470.37 946.49 472.37 895.45 484.45 857.63 493.11 819.59 495.95 859.24 524.66 946.49 501.91 975.69 497.27 975.69 470.37"/><polygon class="cls-6" points="793.89 574.01 808.83 574.01 808.83 574 769.36 574 793.89 574.01"/><polygon class="cls-6" points="805.48 547.59 786.71 547.13 766.14 544.71 765.27 547.59 766.14 554.77 765.27 560.67 763.01 565.53 761.81 574 769.36 574 808.83 574 808.23 553.53 805.48 547.59"/><polygon class="cls-9" points="754.19 526.56 753.04 531.39 752.04 544.11 752.04 555.53 751.42 560.67 750.29 566.2 750.29 570.81 750.9 571.52 751.59 571.52 751.94 572.53 753.44 574.13 753.85 574.13 755.64 576.13 756.77 577.67 757.64 578.18 758.2 577.85 758.2 576.86 759.41 577.77 760.12 577.35 760.12 576.13 759.09 574 754.19 574 754.19 526.56"/><polygon class="cls-9" points="758.97 570.46 759.85 566.85 760.12 570.02 760.57 571.46 762.25 572.43 763.23 571.96 762.48 570.3 761.88 568.23 762.2 565.53 762.01 562.46 760.41 559.48 758.75 556.97 760.2 543.58 761.67 537.81 762.6 531.1 764.14 524.98 764.91 521.58 764.82 519.78 754.67 517 754.67 524.51 754.19 526.56 754.19 574 759.09 574 758.97 573.75 758.97 570.46"/><polygon class="cls-10" points="758.49 523.46 756.16 524.8 759.32 527.35 759.81 531.4 758.82 534.88 757.6 541.09 758.57 546.39 757.6 549.95 758.32 556.24 758.75 556.97 760.2 543.58 761.67 537.81 762.6 531.1 764.91 521.58 765.27 518.24 757.73 519.58 758.49 523.46"/><polygon class="cls-2" points="799.07 463.47 798.87 465.39 799.74 465.99 800.21 465.48 799.88 463.95 799.07 463.47"/><polygon class="cls-2" points="781.09 463.47 779.87 464.77 780.16 465.9 781.47 467.58 781.8 467 782.32 465.3 781.83 463.47 781.09 463.47"/><polygon class="cls-4" points="754.08 509.19 752.59 513.56 750.75 517.08 753.38 519.77 754.19 520.21 754.19 508.96 754.08 509.19"/><polygon class="cls-4" points="761.69 521.35 764.82 519.78 764.49 513.46 765.05 524.34 764.39 540.81 766.14 544.71 769.4 546.92 780.99 551.19 791.21 551.91 801.27 551.91 807.5 545.51 809.82 537.34 809.82 530.4 807.85 525.43 807.85 516.17 812.29 495.38 815.72 492.55 813.77 489.18 809.6 486.78 805.44 485.11 802.72 483.07 783.7 482.08 776.26 483.2 768.42 485.86 763.58 491.21 757.92 500.99 754.19 508.96 754.19 520.21 756.61 521.52 761.69 521.35"/><polygon class="cls-10" points="797.35 480.57 797.74 476.93 782.84 476.93 783.03 479.92 782.28 484.56 784.72 488.78 789.5 494.94 791.86 496.79 794.46 491.39 797.92 484.19 797.35 481.87 797.35 480.57"/><polygon class="cls-5" points="812.29 495.38 808.99 510.83 807.85 516.17 817.28 509.47 817.46 505.66 817.46 498.53 815.72 492.55 812.29 495.38"/><polygon class="cls-10" points="793.66 458.38 789.87 458 786.36 459.1 783.62 461.56 781.83 463.47 781.8 463.95 782.84 465.36 787.55 463.3 789.87 463.69 791.54 463.95 794.21 463.17 796.41 463.69 797.43 464.71 798.98 464.79 799.07 463.47 797.75 461.53 793.66 458.38"/><polygon class="cls-9" points="800.21 465.48 799.74 465.99 798.87 465.39 796.78 463.26 794.13 462.74 792.9 463.56 791.54 463.95 789.87 463.69 785.78 462.74 782.46 464.24 781.8 467 781.47 467.58 780.16 465.9 778.92 465.39 778.29 466.77 778.56 468.56 779.51 471.02 779.87 472.64 779.87 473.72 780.58 474.58 781.57 474.22 781.8 474.86 782.32 477.87 783.62 479.68 785.63 480.57 787.94 482.53 791.63 483.2 793.97 481.85 794.72 480.7 795.77 480.1 797.27 478.44 798.26 476.72 798.57 473.82 799.07 474.22 799.94 473.72 800.1 471.68 800.64 470.12 801.27 467.94 801.12 465.64 800.21 465.48"/><polygon class="cls-6" points="822.44 574.01 842.64 574 812.15 574 822.44 574.01"/><polygon class="cls-6" points="850.87 560.67 846.87 562.73 840.72 564.05 838.06 564.27 837.51 562.03 813.86 561.28 812.15 574 842.64 574 850.92 574 852.2 568.64 850.87 560.67"/><polygon class="cls-4" points="835.28 564.49 840.72 564.05 846.87 562.73 850.87 560.67 850.87 556.82 843.23 559.9 835.28 564.49"/><polygon class="cls-6" points="858.8 532.94 859.24 530.25 856.67 514.79 852.97 509.7 847.41 507.25 842.05 505.46 831.17 507.74 825.3 504.39 817.28 507.25 810.68 510.83 806.94 515.45 806.94 521.85 804.84 527.64 806.2 538.04 804.28 543.4 807.85 546.1 813.04 546.57 814.2 546.57 814.41 551.14 813.86 561.28 815.97 563.26 823.51 566.2 831.53 566.2 838.86 564.03 846.01 559.66 846.29 563.26 847.5 563.03 847.28 559.12 850.38 558.11 851.6 556.85 851.34 552.4 851.67 546.35 855.18 546.67 860.49 545.07 859.24 535.8 858.8 532.94"/><polygon class="cls-10" points="833.73 498.39 826.46 493.94 826.81 498.35 826.34 501.84 826.81 503.61 831.17 507.74 833.88 510.15 835.06 510.83 836.24 510.15 838.25 506.66 839.7 503.97 839.89 501.3 839.61 499.16 839.89 498.11 833.73 498.39"/><polygon class="cls-9" points="843.46 489.4 842.83 490.26 842.36 490.75 842.47 489.68 842.47 488.09 841.55 486.51 834.92 484.6 830.33 484.44 828.01 486.01 826.22 486.7 826.22 488.83 825.31 488.41 824.25 487.53 823.71 487.53 822.95 489.2 823.21 490.56 823.88 491.73 824.2 492.59 824.37 493.49 824.87 494.17 825.81 494.31 826.46 493.94 826.64 495.69 827.32 497.36 830.33 499.87 832.78 500.81 836.24 500.99 837.69 499.72 839.89 498.11 841.37 496.12 841.59 494.92 842.24 495.35 842.86 494.55 843.04 493.64 844.08 492.03 844.51 490.85 844.14 489.51 843.46 489.4"/><polygon class="cls-10" points="904.58 531.19 905.32 534.65 903.11 543.86 903.92 551.37 906.42 557.03 912.06 543.71 913.15 537.18 913.41 533.84 913.41 524.12 904.58 525.3 904.58 531.19"/><polygon class="cls-11" points="903.11 543.86 903.92 551.37 906.42 557.03 908.24 552.74 904.5 538.04 903.11 543.86"/><polygon class="cls-4" points="909 570.12 908.24 566.76 909.72 562.81 906.51 555.36 905.25 550.43 871.04 550.69 869.89 554.18 867.21 558.88 865.88 562.81 866.89 567.24 867.33 574 888.64 574 908.75 574 908.26 572.52 909 570.12"/><polygon class="cls-10" points="858.86 532.02 857.63 549.79 862.23 544.57 865.92 539.08 868.71 528.74 858.86 526.28 858.86 532.02"/><polygon class="cls-11" points="904.58 527.76 907.9 532.17 910.59 533.73 913.41 532.82 913.41 524.12 904.58 525.3 904.58 527.76"/><polygon class="cls-11" points="858.86 532.02 857.63 549.79 859.62 547.54 861.29 539.69 867.69 532.52 868.71 528.74 858.86 526.28 858.86 532.02"/><polygon class="cls-5" points="907.28 499.6 901.31 496.23 892.37 493.49 877.2 494.75 872.28 497.58 863.73 502.52 861.78 505.32 860.8 509.47 859.83 513.25 857.64 520.07 858.01 526.78 861.48 528.78 867.63 530.31 869.82 529.88 871.41 525.8 871.84 527.5 871.84 534.39 872.69 539.26 870.62 544.2 869.4 550.05 870.49 551.63 875.92 553.39 883.23 555.53 893.04 554.25 904.44 551.51 906.45 548.83 906.45 544.32 902.81 539.67 904.56 536.64 903.28 531.53 903.76 526.92 907.28 528.09 912.09 527.05 915.15 523.21 910.71 502.42 907.28 499.6"/><polygon class="cls-10" points="886.47 488.87 882.51 490.36 876.72 487.71 877.49 491.89 877.49 494.92 880.87 501.33 885.51 506.79 890.82 500.12 890.82 491.89 889.66 485.12 886.47 488.87"/><polygon class="cls-9" points="891.32 477.52 890.05 479.13 889.68 478.09 888.97 475.1 887.33 471.61 885.3 470.17 882.6 470.6 877.81 472.11 873.66 475.67 873.66 479.1 873.66 481.58 872.75 480.79 871.74 480.2 870.98 480.64 871.25 482.68 872.12 483.97 873.16 485.48 874.59 486.04 875.18 485.71 875.48 486.28 876.39 488.06 878.84 489.47 881.82 490.95 884.43 490.95 886.76 489.6 888.3 487.62 890.05 485.34 890.05 483.8 891.09 483.44 891.96 482.18 891.96 481.07 892.63 479.13 892.2 477.32 891.32 477.52"/><polygon class="cls-5" points="955.53 553.98 931.93 556.34 915.19 553.2 912.06 558.85 912.06 565.61 912.06 567.89 912.85 570.19 912.39 574 959.33 574 959.45 562.79 955.53 553.98"/><polygon class="cls-4" points="975.1 514.62 969.65 508.44 965.37 503.49 965.37 525.03 968.43 525.92 972.86 525.92 976.75 523.86 978.84 520.25 978.96 518.92 975.1 514.62"/><polygon class="cls-4" points="958.88 495.97 950.02 491.89 939.27 488.87 920.25 489.85 917.53 491.89 913.37 493.56 909.2 495.97 906.97 499.42 910.71 502.42 915.12 522.95 915.12 532.22 913.15 537.18 913.15 544.12 916.13 549.29 924.81 553.13 931.57 553.13 942.27 553.13 953.57 550.37 956.83 548.48 957.91 544.92 957.91 531.13 958.48 520.25 962.76 524.76 964.44 524.76 965.37 525.03 965.37 503.49 958.88 495.97"/><polygon class="cls-10" points="927.32 487.2 920.75 488.07 921.73 491.64 926.92 501.33 929.28 499.48 934.07 493.31 936.5 489.1 935.43 482.46 927.32 487.2"/><polygon class="cls-9" points="935.9 475.9 935.41 477.75 935.05 478.37 934.9 476.54 934.3 474.18 934.5 472.02 931.82 470.48 927.9 469.76 924.04 469.76 920.27 471.27 917.16 472.02 917.54 474.94 917.16 477.77 917.16 479.65 916.33 478.68 915.46 476.64 915.33 475.33 914.46 475.33 914.32 477.04 914.76 479.25 916 480.72 916.4 482.76 917.3 483.93 918.21 484.45 918.65 484.2 918.97 486.01 919.58 487.9 922.05 489.94 923.36 491.41 924.83 492.5 928.61 492.66 930.34 491.66 931.68 489.92 933.32 488.62 935.13 486.07 935.43 484.47 935.43 482.46 935.97 482.6 936.48 481.7 936.87 480.48 936.98 479.21 937.47 477.26 937.47 475.69 936.53 475.15 935.9 475.9"/><polygon class="cls-10" points="978.84 520.25 976.75 523.86 972.86 525.92 969.65 525.92 969.3 528.75 967.39 534.42 966.77 540.77 965.37 544.42 965.37 560.22 967.99 557.78 969.26 555.41 969.71 554.01 976.85 538.33 980.56 528.1 980.56 523.78 978.84 520.25"/><polygon class="cls-10" points="963.02 550.53 958.66 553.05 956.17 554.49 951.38 557.08 947.15 560.45 946.58 561.43 947.12 562.53 948.6 562.35 951.12 560.16 953.98 559 952.16 560.76 949.64 563.41 948.03 565.17 948.03 566 948.97 566.76 950.32 566.19 952.03 564.42 954.19 562.04 956.21 560.87 956.83 560.71 956 561.56 952.84 565.3 951.46 567.12 951.38 568.05 951.87 568.57 952.68 568.68 953.66 568.11 955.28 565.85 957.46 563.28 959.32 561.98 959.45 562.79 958.52 565.15 957.45 566.94 956.69 568.26 956.69 569.12 957.51 569.6 958.18 569.35 959.32 567.43 961.97 563.17 963.19 562.24 965.37 560.22 965.37 544.42 963.02 550.53"/><polygon class="cls-2" points="927.26 480.62 926.61 479.27 926.41 478.05 926.88 476.46 927.55 475.31 928.2 474.93 927.63 473.96 927.11 474.26 926.12 473.69 925.36 474.13 925.17 473.3 924.8 473.3 924.8 474.85 924.4 474.16 923.45 473.98 922.72 475.24 924.38 476.46 924.67 477.35 924.67 479.91 924.18 481.21 923.72 480.73 923.24 481.57 923.33 482.36 923.9 482.57 924.55 482.46 925.12 482.79 926.16 482.79 926.73 482.46 927.67 482.55 928.14 482.27 928.43 481.5 927.95 480.41 927.26 480.62"/><polygon class="cls-10" points="931.06 476 929.58 475.29 928.2 474.93 927.55 475.31 926.88 476.46 926.41 478.05 926.61 479.27 927.26 480.62 927.95 480.41 928.43 479.55 929.58 480.21 931.48 480.21 932.74 479.27 932.74 478.05 932.01 477.18 931.06 476"/><polygon class="cls-6" points="928.74 476.71 927.21 477.59 927.34 477.72 927.71 477.72 928.88 477.5 930.34 477.5 931.77 477.89 930.38 476.71 928.74 476.71"/><polygon class="cls-2" points="929.97 476 928.58 476.15 927.9 476.71 927.38 477.3 927.38 477.49 928.74 476.71 930.38 476.71 931.77 477.89 931.77 477.77 931.7 477.64 931.77 477.59 931.77 477.52 931.09 476.34 929.97 476"/><polygon class="cls-10" points="922.74 475.26 921.36 475.61 919.88 476.33 919.26 477.18 918.87 478.37 918.87 479.6 920.13 480.54 921.36 480.54 922.51 479.88 922.99 480.73 923.72 480.73 924.18 481.21 924.67 479.91 924.67 477.35 924.38 476.46 922.74 475.26"/><polygon class="cls-6" points="920.88 477.06 919.5 478.25 920.93 477.86 922.38 477.86 923.56 478.07 923.93 478.07 924.06 477.94 922.52 477.06 920.88 477.06"/><polygon class="cls-2" points="922.69 476.5 921.3 476.36 920.17 476.69 919.5 477.87 919.5 477.94 919.57 477.99 919.5 478.12 919.5 478.25 920.88 477.06 922.52 477.06 923.89 477.84 923.89 477.65 923.37 477.06 922.69 476.5"/><polygon class="cls-10" points="936.63 476.71 935.92 478.4 935.23 478.86 935.95 478.96 935.95 479.66 935.47 480.5 935.47 481.21 935.92 480.77 936.27 479.82 936.89 477.77 936.98 476.43 936.63 476 936.63 476.71"/><polygon class="cls-10" points="917.17 480.21 915.62 478.35 915.07 477.65 914.93 476.14 914.8 476.49 914.62 476.88 915.14 478.93 916.36 480.28 916.63 481.66 917.17 482.21 917.17 481.32 916.86 480.86 916.86 480.17 917.17 480.21"/><polygon class="cls-5" points="935.73 471.78 934.5 472.02 934.3 474.18 934.9 476.54 935.05 478.37 935.41 477.75 935.9 475.9 936.53 475.15 936.5 474.09 935.73 471.78"/><polygon class="cls-5" points="915.4 472.29 914.94 473.49 914.94 474.93 915.33 475.33 915.46 476.64 916.33 478.68 917.16 479.65 917.16 477.77 917.54 474.94 917.16 472.02 915.4 472.29"/><polygon class="cls-5" points="923.63 474.65 923.63 475.25 923.36 474.53 922.72 474.47 922.84 474.81 922.63 474.46 921.85 474.49 922 474.92 921.77 474.54 920.5 474.41 919.58 474.75 918.87 475.55 919.74 475.25 921.19 475.25 922.27 475.31 923.05 475.82 923.05 475.46 923.36 475.99 924.01 475.99 923.88 475.06 923.63 474.65"/><polygon class="cls-5" points="930.72 474.47 929.44 474.59 929.22 474.98 929.37 474.55 928.58 474.52 928.38 474.87 928.5 474.53 927.86 474.58 927.59 475.31 927.59 474.7 927.34 475.12 927.21 476.05 927.86 476.05 928.17 475.52 928.17 475.88 928.95 475.36 930.03 475.31 931.47 475.31 932.35 475.61 931.63 474.81 930.72 474.47"/><polygon class="cls-10" points="924.04 469.76 919.5 471.45 924.67 471.78 931.82 470.48 927.9 469.76 924.04 469.76"/><polygon class="cls-10" points="923.24 481.54 921.69 483.85 921.09 485.76 922.72 488.58 921.78 485.6 922.16 484 923.24 481.54"/><polygon class="cls-10" points="928.31 481.21 929.85 483.84 930.28 485.56 929.23 488.73 931.05 485.72 930.38 483.68 928.31 481.21"/><polygon class="cls-10" points="926.16 482.79 925.12 482.79 924.55 482.46 924.99 483.22 924.91 483.71 924.99 484.23 925.9 484.45 926.74 484.15 926.92 483.19 926.73 482.46 926.16 482.79"/><polygon class="cls-6" points="929.19 485.09 927.12 485.47 924.55 485.47 922.01 484.78 924.47 486.88 927.37 486.88 930.08 485.32 929.85 485.09 929.19 485.09"/><polygon class="cls-12" points="927.53 484.84 926.23 485.11 925.64 485.11 924.45 484.84 922.01 484.78 924.55 485.47 927.12 485.47 929.19 485.09 929.85 485.09 930.08 485.32 930.21 485.32 930.08 485 927.53 484.84"/><polygon class="cls-12" points="927.37 486.88 924.47 486.88 923.13 485.74 922.1 484.85 923.04 486.55 924.67 487.71 927.12 487.71 928.43 487.03 930.21 485.32 930.08 485.32 927.37 486.88"/><polygon class="cls-2" points="926.92 461.2 922.16 461.62 916.73 464.17 914.32 468.33 914.32 470.77 914.62 472.02 918.87 470.77 924.55 468.36 928.08 468.36 933 469.4 934.82 470.77 935.79 471.16 936.98 469.76 936.98 466.12 932.35 462.23 926.92 461.2"/><polygon class="cls-9" points="930.44 467.19 923.02 467.19 918.87 468.61 914.62 472.02 918.87 470.77 924.55 468.36 928.08 468.36 933 469.4 934.82 470.77 935.79 471.16 933.81 469.13 930.44 467.19"/><polygon class="cls-2" points="934.82 470.77 933 469.4 928.08 468.36 924.55 468.36 918.87 470.77 914.62 472.02 914.71 472.37 915.4 472.29 917.16 472.02 919.5 471.45 924.04 469.76 927.9 469.76 931.82 470.48 934.5 472.02 935.73 471.78 935.99 471.54 935.79 471.16 934.82 470.77"/><polygon class="cls-11" points="969.65 525.92 970.41 530.16 974.38 532.22 977.53 530.07 980.56 523.78 978.84 520.25 976.75 523.86 972.86 525.92 969.65 525.92"/><polygon class="cls-11" points="967.73 554.03 966.93 551.33 965.51 548.88 965.37 549.01 965.37 552.67 967.73 554.03"/><polygon class="cls-11" points="963.02 550.53 960.24 552.14 964.45 552.14 965.37 552.67 965.37 549.01 963.57 550.67 963.02 550.53"/><polygon class="cls-11" points="953.43 561.72 950.32 566.19 954.19 562.04 956.21 560.87 956.83 560.71 956.83 559.43 955.76 560.38 953.43 561.72"/><polygon class="cls-11" points="952.75 559 950.83 559.64 948.6 562.35 951.12 560.16 953.98 559 954.67 557.8 953.03 558.21 952.75 559"/><polygon class="cls-9" points="947.7 560.25 946.58 561.43 946.49 562.14 946.88 562.51 947.62 562.53 948.51 561.62 948.75 560.79 948.24 560.25 947.7 560.25"/><polygon class="cls-9" points="948.75 564.71 947.88 565.76 947.88 566.25 948.6 566.76 949.06 566.49 949.94 565.55 950.02 565.02 949.38 564.47 948.75 564.71"/><polygon class="cls-9" points="952.67 566.49 952.26 566.61 951.28 567.83 951.33 568.22 952.04 568.74 952.43 568.64 953.36 567.56 953.45 567.21 953.34 566.61 952.67 566.49"/><polygon class="cls-9" points="957.23 568.05 956.63 568.97 956.63 569.26 956.92 569.6 957.42 569.69 958.07 568.85 958.22 568.5 958.22 568.22 957.65 567.89 957.23 568.05"/><polygon class="cls-5" points="935.75 484.46 936.5 489.1 934.07 493.31 929.28 499.48 926.92 501.33 925.9 503.07 932.35 497.49 935.43 498.15 937.78 500.52 940.51 491.6 940.87 489.11 936.5 484.45 935.75 484.46"/><polygon class="cls-6" points="921.09 489.15 920.75 488.87 920.25 489.85 918.17 493.45 917.53 499.39 917.69 499.67 919.61 497.47 921.65 497.47 924.13 499.39 925.9 503.07 926.92 501.33 921.73 491.64 921.09 489.15"/><polygon class="cls-6" points="928.77 500.58 925.9 503.07 925.9 506.37 925.9 513.78 925.9 516.34 928.49 516.34 928.21 515.1 928.41 506.68 928.77 500.58"/><polygon class="cls-5" points="926.48 503.98 926.48 504.88 927.33 505.38 927.86 504.76 927.86 503.83 927.12 503.4 926.48 503.98"/><polygon class="cls-5" points="926.48 508.03 926.48 508.94 927.33 509.43 927.86 508.81 927.86 507.88 927.12 507.45 926.48 508.03"/><polygon class="cls-5" points="926.48 511.97 926.48 512.88 927.33 513.38 927.86 512.75 927.86 511.82 927.12 511.39 926.48 511.97"/><polygon class="cls-6" points="954.67 549.73 953.57 550.37 942.27 553.13 924.81 553.13 920.81 551.36 916.13 549.29 915.89 548.88 915.19 553.2 918.49 555.1 923.5 557.55 931.65 558.31 942.49 557.8 946.58 556.66 955.53 553.98 955.03 552.02 954.67 549.73"/><polygon class="cls-5" points="926.02 553 925.54 554.7 925.54 556.5 925.84 558.21 926.78 558.21 926.57 556.5 926.48 554.74 926.78 553 926.02 553"/><polygon class="cls-5" points="916.65 551.28 916.14 553.01 915.94 554.74 916.84 555.01 917.13 553.3 917.54 551.59 918.32 550.01 917.59 549.79 916.65 551.28"/><polygon class="cls-5" points="940.87 553 941.16 554.74 941.08 556.5 940.87 558.21 941.81 558.21 942.11 556.5 942.11 554.7 941.62 553 940.87 553"/><polygon class="cls-5" points="953.52 551.66 952.69 550.11 951.95 550.27 952.61 551.91 952.91 553.64 953.08 555.36 954 555.16 953.91 553.42 953.52 551.66"/><polygon class="cls-6" points="884.16 477.05 883.11 477.65 883.77 477.82 885.22 477.6 886.78 477.6 887.33 477.3 885.77 476.79 884.16 477.05"/><polygon class="cls-6" points="876.89 477.88 875.48 478.71 876.08 478.88 877.61 478.55 879.07 478.46 879.68 478.15 878.52 477.79 876.89 477.88"/><polygon class="cls-6" points="885.02 484.73 882.26 485.12 880.04 485.38 879.17 485.55 879.17 486.15 880.39 486.68 883.27 486.87 885.75 486.25 886.39 485.12 886.23 484.45 885.02 484.73"/><polygon class="cls-2" points="880.04 485.38 880.04 485.86 881.1 486.25 883.15 486.25 884.43 485.99 885.3 485.48 885.3 484.99 882.78 485.44 880.04 485.38"/><polygon class="cls-9" points="880.04 485.38 880.83 485.44 882.78 485.48 883.81 485.33 885.3 484.99 885.41 484.94 885.49 484.62 882.54 485.09 880.04 485.38"/><polygon class="cls-2" points="883.37 481.25 882.82 480.43 882.47 477.49 882.99 476.22 882.73 476.02 882.6 475.17 882.84 474.91 882.92 474.26 881.61 473.38 879.95 473.8 879.84 474.69 879.38 474.81 879.98 475.39 880.39 475.63 880.39 476.48 880.25 476.63 880.88 477.62 881.19 480.55 880.74 481.34 880.01 481.88 879.85 482.45 880.11 482.87 880.99 482.85 881.37 483.44 882.67 483.44 883.11 482.68 883.63 482.68 884.26 482.51 884.26 481.92 883.92 481.34 883.37 481.25"/><polygon class="cls-12" points="883.57 484.33 882.67 484.62 881.04 484.45 879.68 484.99 879.17 485.55 880.04 485.38 882.54 485.09 885.49 484.62 886.23 484.45 884.91 484.21 883.57 484.33"/><polygon class="cls-12" points="885.49 486.1 883.27 486.87 880.39 486.68 879.17 485.93 879.17 486.15 879.48 486.51 880.37 487.25 882.33 487.47 883.37 487.43 885.62 486.72 886.39 485.12 886.3 484.72 885.49 486.1"/><polygon class="cls-10" points="883.97 481.07 883.37 481.25 883.92 481.34 884.57 481.81 886.23 483.18 886.23 484.45 886.39 485.12 886.74 486.87 887.53 486.1 887.53 483.44 885.78 481.94 883.97 481.07"/><polygon class="cls-10" points="882.67 483.44 881.82 483.44 881.7 483.97 882.61 484.21 883.31 483.97 883.5 483.22 883.11 482.68 882.67 483.44"/><polygon class="cls-10" points="878.34 483.01 877.81 485.35 878.5 487.47 878.92 487.47 879.48 486.51 879.17 486.15 879.17 485.55 879.33 485.37 879.17 483.63 879.85 482.45 880.01 481.88 880.74 481.34 879.92 481.64 878.34 483.01"/><polygon class="cls-10" points="891.5 478.23 890.69 479.62 890.22 480.36 890.74 480.36 890.82 481.07 890.33 481.68 890.33 482.49 890.82 481.89 891.51 481.89 891.51 480.78 891.96 479.62 891.87 478.23 891.5 478.23"/><polygon class="cls-10" points="873.41 482.95 874.09 482.91 873.18 481.34 871.78 480.79 871.38 481.48 871.67 482.5 872.3 483.6 873.37 484.41 874.01 484.88 874.26 484.45 873.41 483.61 873.41 482.95"/><polygon class="cls-10" points="880.25 476.63 879.27 475.76 879 476.22 876.72 476.55 878.37 477.31 879.68 478.15 879.07 478.46 877.61 478.55 876.28 479.31 875.48 479.61 875.48 480.19 876.87 480.36 877.28 481.07 879.27 480.79 880.74 479.66 881.03 478.99 880.88 477.62 880.25 476.63"/><polygon class="cls-6" points="879.85 475.63 879.68 475.33 879.71 475.92 879.47 475.5 879.07 475.33 878.53 475.47 878.74 476.04 878.33 475.49 876.83 475.69 876.21 475.77 875.37 476.48 874.89 477.32 876.12 476.61 877.91 476.43 879.54 476.73 879.47 476.11 879.68 476.61 880.15 476.73 880.39 476.48 880.39 475.63 879.98 475.39 879.85 475.63"/><polygon class="cls-10" points="885.49 477.6 883.11 477.65 884.13 476.61 885.67 475.87 886.6 475.33 884.61 475.45 883.5 475.21 882.99 476.22 882.47 477.49 882.62 478.73 883.5 479.37 886.93 480.36 887.91 480.03 887.91 479.35 888.43 478.88 887.99 478.11 885.49 477.6"/><polygon class="cls-6" points="886.39 474.71 885.81 474.72 884.43 474.74 884.15 475.35 884.25 474.75 883.74 474.69 883.41 474.92 883.26 475.37 883.19 474.78 883.09 475.09 882.93 474.88 882.6 475.17 882.73 476.02 882.99 476.22 883.39 476.04 883.51 475.52 883.54 476.13 884.95 475.61 886.59 475.53 887.82 476.06 887.25 475.3 886.39 474.71"/><polygon class="cls-2" points="879.33 477.93 878.57 477.43 877.73 477.43 876.6 477.55 875.65 478.33 875.78 478.41 875.48 478.71 876.89 477.88 878.52 477.79 879.68 478.15 879.75 478.3 879.99 478.15 879.68 477.82 879.33 477.93"/><polygon class="cls-2" points="885.84 476.4 884.26 476.73 883.42 477.31 883.08 477.2 882.82 477.65 883.01 477.82 883.11 477.65 884.16 477.05 885.77 476.79 887.17 477.25 887.07 476.93 885.84 476.4"/><polygon class="cls-6" points="879.01 469.2 875.85 470.55 872.4 475.72 872.06 477.79 871.74 480.2 873.66 481.58 873.89 478.71 873.66 475.67 877.81 472.11 882.6 470.6 885.3 470.17 885.74 469.38 883.28 469.2 879.01 469.2"/><polygon class="cls-6" points="889.86 473.06 887.65 470.69 885.65 469.35 885.3 470.17 887.33 471.61 888.97 475.1 889.68 478.09 890.05 479.13 891.08 477.82 890.82 475.76 889.86 473.06"/><polygon class="cls-2" points="888.81 469.37 886.23 466.4 882.23 465.32 878.25 465.32 875.34 466.4 872.47 468.21 870.48 470.49 869.75 472.41 870.24 475.92 871.12 478.59 871.46 480.36 871.74 480.2 871.57 478.33 870.98 474.94 870.98 471.57 872.77 469.2 876.39 467.38 880.39 466.64 884.26 467.15 887.53 469.2 889.3 471.67 890.49 473.78 891.08 477.82 891.32 477.52 890.82 473.14 888.81 469.37"/><polygon class="cls-9" points="889.3 471.67 887.53 469.2 884.26 467.15 880.39 466.64 876.39 467.38 872.77 469.2 870.98 471.57 870.98 474.94 871.57 478.33 871.74 480.2 872.16 477.57 872.4 475.72 873.96 473.38 877.06 469.86 882.05 469.12 885.62 469.47 887.82 470.86 889.55 473.06 890.27 474.32 890.82 475.76 890.49 473.78 889.3 471.67"/><polygon class="cls-6" points="880.47 500.08 877.49 494.92 877.49 492.84 876.72 493.08 875.49 496.45 875.07 500.93 876.72 505.98 878.28 503.77 880.39 503.4 885.51 506.79 883.4 504.19 880.47 500.08"/><polygon class="cls-4" points="895.62 494.25 891.96 490.39 890.56 490.39 890.82 491.89 890.82 500.12 885.51 506.79 892.91 502.25 894.36 501.89 896.97 503.4 896.41 498.54 895.62 494.25"/><polygon class="cls-5" points="891.24 491.18 890.7 491.18 890.82 491.89 890.82 500.12 887.61 504.15 892.9 499.81 893.73 495.97 892.02 491.89 891.24 491.18"/><polygon class="cls-6" points="884.28 505.98 884.61 513.96 884.28 521 886.85 521.13 887.11 513.55 887.11 505.8 885.51 506.79 884.28 505.98"/><polygon class="cls-5" points="885.55 508.42 885.2 509.48 885.85 510.15 886.5 509.61 886.5 508.73 886.14 508.11 885.55 508.42"/><polygon class="cls-5" points="885.55 512.48 885.2 513.54 885.85 514.21 886.5 513.67 886.5 512.79 886.14 512.17 885.55 512.48"/><polygon class="cls-5" points="885.22 516.55 884.86 517.61 885.51 518.28 886.16 517.74 886.16 516.86 885.81 516.24 885.22 516.55"/><polygon class="cls-6" points="904.44 551.51 893.04 554.25 883.23 555.53 875.14 553.13 870.49 551.63 869.89 554.18 878.31 557.95 885.04 559.1 896.31 557.03 903.49 555.01 905.89 552.94 905.25 550.43 904.44 551.51"/><polygon class="cls-4" points="882.31 557.03 882.31 559.1 883.33 559.29 883.33 557.03 883.88 555.24 882.93 555.24 882.31 557.03"/><polygon class="cls-4" points="872.47 553.74 872.05 555.53 872.9 556.03 873.3 554.19 874.54 552.64 873.57 552.35 872.47 553.74"/><polygon class="cls-4" points="895.19 553.42 894.33 553.72 895.38 555.53 895.38 557.66 896.57 557.48 896.24 555.24 895.19 553.42"/><polygon class="cls-4" points="903.26 551.57 902.42 551.7 903.28 553.2 903.49 555.01 904.3 554.77 904.07 552.96 903.26 551.57"/><polygon class="cls-6" points="838.58 488.01 836.8 488.65 836.94 488.9 838.43 488.65 839.71 488.87 840.89 489.3 840 488.41 838.58 488.01"/><polygon class="cls-6" points="831.04 487.53 829.04 488.25 828.84 488.65 830.52 488.25 831.84 488.25 832.78 488.37 833.11 488.18 832.73 487.53 831.04 487.53"/><polygon class="cls-6" points="840.46 486.58 838.72 486.36 838.32 486.68 838.46 486.36 838.25 486.36 837.47 487.08 837.73 486.64 837.38 486.72 837.07 487.25 837.46 487.45 839.02 487.03 840.76 487.01 841.37 487.66 841.06 486.93 840.46 486.58"/><polygon class="cls-6" points="832.46 486.14 832.72 486.58 831.94 485.86 831.73 485.86 831.87 486.18 831.48 485.86 829.73 486.07 829.13 486.42 828.83 487.16 829.43 486.51 831.17 486.53 832.74 486.95 833.12 486.74 832.81 486.22 832.46 486.14"/><polygon class="cls-10" points="838.84 483.06 835.71 482.6 832.23 483.15 828.01 486.01 828.25 486.42 829.13 486.42 829.73 486.07 831.48 485.86 831.87 486.18 831.73 485.86 831.94 485.86 832.72 486.58 832.46 486.14 832.81 486.22 833.12 486.74 832.74 486.95 831.17 486.53 829.99 486.51 830.81 486.78 830.81 487.16 830.16 487.85 831.04 487.53 832.73 487.53 833.11 488.18 832.78 488.37 831.92 488.56 830.66 488.56 832.32 488.74 832.32 489.3 832 489.62 830.71 489.62 829.91 489.3 828.84 489.3 828.15 489.81 828.38 490.77 829.53 491.44 831.25 491.44 832.37 490.91 833.01 490.69 832.96 490.95 833.18 491.37 833.89 491.37 834.29 491.13 834.99 491.19 835.82 491.49 836.43 491.26 836.43 490.95 836.8 491.16 837.82 492.14 839.11 492.37 840.49 491.7 841.43 491.03 841.25 490.24 840.41 489.76 839.45 489.97 838.04 489.62 837.85 489.3 838.84 488.99 837.75 488.99 836.94 488.9 836.8 488.65 838.58 488.01 839.69 488.32 839.37 487.89 839.63 487.44 840.76 487.01 839.02 487.03 837.46 487.45 837.07 487.25 837.38 486.72 837.73 486.64 837.47 487.08 838.25 486.36 838.46 486.36 838.32 486.68 838.72 486.36 840.46 486.58 841.06 486.93 841.37 487.66 841.78 488.24 842.47 488.09 842.47 485.53 841.07 484.35 838.84 483.06"/><polygon class="cls-10" points="829.28 493.89 829.17 494.76 829.24 495.19 829.5 495.35 829.83 494.77 829.93 493.78 830.77 492.89 831.49 492.25 829.92 493.16 829.28 493.89"/><polygon class="cls-10" points="838.2 492.99 839.32 494.79 839.32 495.43 839.05 495.91 839.42 496.12 839.89 495.35 839.8 494.63 838.2 492.99"/><polygon class="cls-6" points="837.38 495.35 836.49 495.22 834.86 494.92 833.13 495.03 831.58 494.74 831.41 494.44 830.75 494.44 830.6 494.71 831.27 494.92 833.12 495.17 834.86 495.1 836.47 495.35 837.28 495.65 838.04 495.84 838.25 495.47 838.04 495.1 837.38 495.35"/><polygon class="cls-2" points="836.8 491.16 836.43 490.95 836.43 491.26 835.82 491.49 834.99 491.19 834.29 491.13 833.89 491.37 833.18 491.37 832.96 490.95 832.36 491.42 832.28 491.98 832.62 492.66 833.21 492.66 833.45 492.25 833.93 492.25 833.93 492.53 834.5 492.66 835.58 492.66 835.74 492.37 835.89 492.21 836.29 492.27 836.29 492.53 836.48 492.76 836.93 492.82 837.28 492.44 837.28 491.72 837.16 491.51 836.8 491.16"/><polygon class="cls-12" points="836.47 494.6 835.96 494.31 835.24 494.35 834.26 494.55 833.61 494.31 832.81 494.31 831.95 494.55 831.41 494.44 831.58 494.74 833.13 495.03 834.78 494.92 837.38 495.35 837.85 495.17 837.28 495.17 836.47 494.6"/><polygon class="cls-12" points="834.86 495.1 833.12 495.17 831.27 494.92 830.93 494.81 831.29 495.23 832.08 496 834.36 496.37 836.21 496.28 837.35 495.84 837.44 495.69 836.47 495.35 834.86 495.1"/><polygon class="cls-10" points="835.04 493.23 834.63 493.46 834.53 493.11 834.18 493.11 833.76 493.62 833.98 493.98 834.42 494.17 835.15 494.04 835.54 493.64 835.41 493.23 835.04 493.23"/><polygon class="cls-10" points="842.95 491.01 842.33 491.37 842.33 491.81 842.33 492.52 842.05 493 842.05 493.69 842.47 493.69 842.93 492.46 843.43 491.6 843.84 490.81 843.43 490.37 842.95 491.01"/><polygon class="cls-10" points="825.19 490.55 825.46 490.26 825.3 489.62 824.85 489.36 824.85 488.87 823.81 488.41 823.55 489.22 823.69 490.56 824.55 491.88 825.22 492.11 825.61 491.88 825.19 491.17 825.19 490.55"/><polygon class="cls-9" points="834.72 490.17 834.18 490.17 833.88 490.51 833.88 490.84 834.29 491.13 834.99 491.19 835.82 491.49 836.24 490.95 836.24 490.45 835.49 490.02 834.72 490.17"/><polygon class="cls-2" points="838.43 488.65 836.94 488.9 837.75 488.99 838.84 488.99 839.43 489.35 840.39 489.51 840.89 489.3 839.71 488.87 838.43 488.65"/><polygon class="cls-2" points="828.84 488.65 829.17 489 829.67 488.94 830.66 488.56 831.92 488.56 832.78 488.37 830.52 488.25 828.84 488.65"/><polygon class="cls-9" points="835.12 486.36 834.18 486.65 833.29 487.16 834.24 487.82 834.78 488.76 834.65 489.71 834.18 490.17 834.5 490.37 835.63 490.63 836.24 490.45 836.01 489.93 835.83 489 835.99 488.25 836.59 487.53 836.8 487.39 836.24 486.68 835.12 486.36"/><polygon class="cls-6" points="843.26 486.36 842.47 485.53 842.47 488.09 842.47 489.68 842.36 490.75 842.83 490.26 843.46 489.4 843.84 489.46 844.16 488.5 844.03 487.48 843.26 486.36"/><polygon class="cls-6" points="825.77 486.2 825.17 485.86 824.25 486.84 824.25 487.53 825.31 488.41 825.8 488.92 826.34 489.86 826.22 486.7 825.77 486.2"/><polygon class="cls-9" points="839.22 477.14 836.24 476.56 830.6 476.89 827.68 478.58 825.3 481.07 824.25 482.88 823.88 487.53 824.25 487.53 824.25 486.84 825.17 485.86 825.77 486.2 829.59 481.15 834.24 479.9 839.22 480.55 842.05 482.85 843.26 484.82 844.03 487.48 844.16 488.5 844.51 488.25 844.51 485.21 844.51 482.6 842.36 478.96 839.22 477.14"/><polygon class="cls-2" points="842.05 482.85 839.22 480.55 834.24 479.9 829.59 481.15 825.77 486.2 826.22 486.7 828.01 486.01 832.23 483.15 835.71 482.6 838.84 483.06 841.07 484.35 842.47 485.53 843.26 486.36 844.03 487.48 843.26 484.82 842.05 482.85"/><polygon class="cls-10" points="825.61 482.53 825.77 480.57 825.3 481.07 824.25 482.88 823.88 487.53 824.25 487.53 824.25 486.84 825.17 485.86 825.77 486.2 828.55 482.53 826.92 482.88 825.61 482.53"/><polygon class="cls-6" points="837.44 473.54 834.9 473.54 833.29 473.54 831.41 474.21 829.17 475.5 828.55 476.25 827.48 476.87 826.22 478.96 824.97 480.4 824.25 482.88 825.3 481.07 825.77 480.57 827.68 478.58 830.6 476.89 836.24 476.56 839.22 477.14 842.36 478.96 843.26 478.44 843.26 476.96 840.89 474.45 837.44 473.54"/><polygon class="cls-10" points="849.93 574.01 856.32 574 849.93 574 849.93 574.01"/><polygon class="cls-10" points="857.64 562.98 859.24 553.42 859.24 544.11 855.55 544.11 851.67 546.35 851.34 552.4 851.86 561.18 851.86 568.67 850.6 572.67 849.93 574 856.32 574 856.61 568.67 857.64 562.98"/><polygon class="cls-10" points="808.83 574.01 810.09 574.01 815.34 574.01 815.34 574 808.83 574 808.83 574.01"/><polygon class="cls-10" points="813.86 561.28 814.41 551.14 814.08 544.11 811 544.11 806.59 543.42 804.84 542.41 805.38 552.35 807.91 566.46 808.83 574 815.34 574 814.19 567.01 813.86 561.28"/><polygon class="cls-9" points="808.83 574.01 813.04 574.01 815.34 574.01 815.34 574 808.83 574 808.83 574.01"/><polygon class="cls-9" points="810.83 561.81 807.72 551.91 806.62 553.82 806.2 556.91 807.91 566.46 808.83 574 815.34 574 814.63 569.64 810.83 561.81"/><polygon class="cls-5" points="839.89 501.3 839.7 503.97 836.24 510.15 835.06 510.83 834.78 513.19 838.25 511.19 841.33 511.19 842.95 513.19 842.95 510.15 842.05 505.46 839.89 501.3"/><polygon class="cls-4" points="826.34 501.84 826.5 500.69 826.13 500.69 825.3 500.99 822.95 503.8 822.01 507.25 823.88 512.5 825.3 510.83 829.17 509.13 830.97 510.15 834.78 513.19 835.06 510.83 826.81 503.61 826.34 501.84"/><polygon class="cls-5" points="837.49 517.48 836.45 514.52 836.88 511.98 834.78 513.19 833.49 512.16 834.78 518.31 836.07 523.19 836.07 526.28 836.07 530.86 839.4 530.53 839.4 524.98 838.86 522.4 837.49 517.48"/><polygon class="cls-4" points="837.29 525.92 837.04 527.21 837.78 527.64 838.7 527.28 838.86 526.05 838.06 525.48 837.29 525.92"/><polygon class="cls-4" points="836.34 520.42 836.13 521.49 836.75 521.85 837.51 521.55 837.64 520.52 836.98 520.05 836.34 520.42"/><polygon class="cls-4" points="835.14 515.82 834.93 516.89 835.55 517.25 836.32 516.95 836.45 515.92 835.79 515.45 835.14 515.82"/><polygon class="cls-6" points="793.93 464.11 791.92 464.62 791.17 464.62 790.4 464.7 788.07 464.08 784.46 463.95 782.46 464.24 782.32 465.3 782.39 466.71 783.14 468.01 784.92 469.04 788.34 469.38 789.91 468.47 790.6 467.28 790.6 466.31 791.22 465.95 791.73 466.24 792.08 467.67 792.85 469 794.19 469.38 796.69 469.38 798.19 468.81 798.67 467.97 798.87 466.99 798.87 465.39 798.87 464.42 797.44 464.11 793.93 464.11"/><polygon class="cls-5" points="779.87 463.69 779.87 464.77 780.48 464.77 782.32 465.3 782.46 464.24 781.8 463.95 779.87 463.69"/><polygon class="cls-5" points="798.87 465.39 800.21 465.09 800.21 464.22 798.87 464.42 798.87 465.39"/><polygon class="cls-5" points="789.18 465.04 787.94 464.59 785 464.59 782.96 464.76 782.84 465.36 782.96 466.67 783.62 467.81 785.12 468.68 788.19 468.94 789.53 468.17 789.87 467.64 789.87 466.78 789.73 465.6 789.18 465.04"/><polygon class="cls-5" points="797.43 464.71 793.88 464.65 792.96 464.81 792.37 465.15 792.06 465.69 792.3 467.11 793 468.41 793.61 468.88 795.14 469.04 796.6 468.97 797.89 468.44 798.38 467.61 798.57 466.99 798.57 465.45 798.3 464.98 797.43 464.71"/><polygon class="cls-10" points="783.62 467.81 785.12 468.68 787.94 464.59 785.7 464.59 783.62 467.81"/><polygon class="cls-10" points="786.42 468.79 787.65 466.36 785.94 468.75 786.42 468.79"/><polygon class="cls-10" points="792.85 468.13 793 468.41 793.61 468.88 794.22 468.94 796.59 464.69 794.86 464.65 792.85 468.13"/><polygon class="cls-10" points="795.66 469.04 796.41 466.85 795.14 469.04 795.66 469.04"/><polygon class="cls-10" points="791.8 468.56 791.61 467.94 791.61 467.58 791.27 467 790.89 467.58 790.89 468.52 789.87 469.13 789.87 469.86 790.74 470.12 792.06 470.12 792.4 469.53 792.28 469.04 791.8 468.56"/><polygon class="cls-10" points="788.19 469.93 788 470.85 786.5 472.23 785.71 473.18 785.63 474.65 786.36 475.9 786.94 475.12 786.87 474.6 786.65 473.75 787.28 472.98 788.87 471.9 788.87 471.49 788.45 471.34 788.45 470.66 788.83 470.33 789.37 470.12 789.47 469.68 789.15 469.38 788.19 469.93"/><polygon class="cls-10" points="795.54 472.06 794.03 470.68 793.85 469.77 793.22 469.21 792.9 469.51 793 469.96 793.2 470.17 793.68 470.95 793.59 471.58 793.17 471.88 793.17 472.11 794.76 472.82 795.38 473.59 795.17 474.44 795.1 474.95 795.68 475.74 796.41 474.48 796.32 473.02 795.54 472.06"/><polygon class="cls-10" points="791.42 472.33 790.29 472.1 789.82 472.91 790.25 473.66 791.3 473.82 792.19 473.4 792.31 472.76 792.19 472.19 791.42 472.33"/><polygon class="cls-10" points="793.65 480 790.66 480.42 787.46 480.42 789.24 481.05 793.97 481.28 795.85 480.2 796.66 478.31 796.66 476.33 795.39 478.6 793.65 480"/><polygon class="cls-2" points="793 469.96 792.9 469.51 792.4 469.53 792.06 470.12 790.74 470.12 789.87 469.86 789.87 469.53 789.47 469.68 789.37 470.12 788.83 470.33 788.45 470.66 788.45 471.34 788.87 471.49 789.16 471.49 789.47 471.08 789.98 471.08 790.25 471.24 790.25 471.8 791.14 472.1 791.99 472.03 792.16 471.74 792.4 471.32 792.72 471.13 793.03 471.32 793.03 471.7 793.17 471.88 793.59 471.58 793.68 470.95 793.2 470.17 793 469.96"/><polygon class="cls-2" points="784.27 471.56 783.62 469.92 782.1 469.04 781.49 468.28 780.99 469.77 781.24 471.59 782.02 473.66 782.02 475.4 783.62 475.74 784.43 474.33 783.88 472.64 784.27 471.56"/><polygon class="cls-6" points="795.17 474.44 794.65 474.14 793.55 474.4 791.73 474.58 790.4 474.58 788.65 474.05 787.39 473.72 786.74 474.12 786.87 474.6 786.94 475.12 787.13 474.55 787.55 474.3 788.07 474.22 788.7 474.28 790.39 474.73 791.76 474.73 793.58 474.58 794.33 474.58 794.46 474.78 794.65 475.29 795.01 475.5 795.68 475.74 795.1 474.95 795.17 474.44"/><polygon class="cls-12" points="792.4 473.82 791.38 474.14 790.59 474.14 789.71 473.82 788.69 473.82 787.39 473.72 788.65 474.05 790.4 474.58 791.73 474.58 793.55 474.4 794.65 474.14 793.01 473.93 792.4 473.82"/><polygon class="cls-12" points="793.58 474.58 791.76 474.73 790.39 474.73 788.7 474.28 788.07 474.22 787.55 474.3 787.13 474.55 787.94 474.58 788.6 474.86 789.82 475.39 791.35 475.51 792.85 475.33 794.15 474.95 794.46 474.78 794.33 474.58 793.58 474.58"/><polygon class="cls-10" points="800.21 467 800.21 467.94 799.91 468.56 799.29 468.71 799.78 468.78 800.06 468.94 799.9 469.38 799.63 470.7 800.03 470.47 800.39 469.55 800.73 468.71 800.9 467.08 800.84 466.4 800.21 467"/><polygon class="cls-10" points="781.24 469.04 781.16 468.56 780.67 467.71 779.87 466.4 779.37 465.9 779.08 466.66 779.08 467.94 779.57 469.78 780.12 471 780.3 471.68 780.81 471.68 781.24 471.59 780.57 469.87 780.67 469.04 781.24 469.04"/><polygon class="cls-5" points="789.5 494.94 784.72 488.78 782.28 484.56 783.03 479.92 782.28 479.91 777.91 484.58 778.27 487.06 781 495.98 783.35 493.62 786.43 492.95 792.88 498.53 791.86 496.79 789.5 494.94"/><polygon class="cls-6" points="799.65 481.94 797.35 480.57 797.35 481.87 797.92 484.19 791.86 496.79 792.88 498.53 795.12 493.91 798.02 491.5 800.4 491.5 802.64 494.27 802.83 493.92 802.09 486.46 799.65 481.94"/><polygon class="cls-6" points="790.37 502.14 790.57 510.56 790.29 511.8 792.88 511.8 792.88 509.24 792.88 501.83 792.88 498.53 790.01 496.04 790.37 502.14"/><polygon class="cls-5" points="790.92 499.29 790.92 500.22 791.45 500.84 792.31 500.35 792.31 499.44 791.66 498.86 790.92 499.29"/><polygon class="cls-5" points="790.92 503.34 790.92 504.27 791.45 504.9 792.31 504.4 792.31 503.49 791.66 502.91 790.92 503.34"/><polygon class="cls-5" points="790.92 507.29 790.92 508.22 791.45 508.84 792.31 508.34 792.31 507.44 791.66 506.86 790.92 507.29"/><polygon class="cls-9" points="797.86 458.57 794.65 456.81 788.45 456.59 784.43 459.31 780.99 462.74 780.83 463.21 781.09 463.47 781.83 463.47 783.45 462 786.16 460.1 789.1 458.87 792.9 458.87 794.53 459.06 798.05 462.17 799.07 463.47 799.88 463.95 799.54 461.48 797.86 458.57"/><polygon class="cls-2" points="794.65 456.81 788.45 456.59 784.43 459.31 781.29 462.44 781.47 462.74 781.91 462.55 784.21 460.11 787.05 458 788.45 457.04 794.53 457.46 796.84 458.73 798.19 460.41 798.87 462.02 799.29 462.27 799.54 461.48 797.86 458.57 794.65 456.81"/><polygon class="cls-10" points="797.73 454.87 794.97 452.76 789.29 451.15 785.46 451.88 781.8 454.76 781.16 458.82 780.99 462.74 784.07 459.66 788.45 456.59 794.65 456.81 797.86 458.57 799.29 461.06 799.88 463.95 799.88 461.23 799.07 458.21 797.73 454.87"/><polygon class="cls-9" points="780.16 457.55 779.87 462.02 779.87 463.95 780.63 463.95 781.09 463.47 780.99 462.74 781.29 462.44 781.57 458.17 782.46 454.58 785.46 451.88 781.53 454.15 780.16 457.55"/><polygon class="cls-2" points="789.87 453.19 788.22 454.07 788.22 455.95 790.06 455.49 792.15 455.33 793.68 456.02 793.68 454.16 792.06 453.19 789.87 453.19"/><path class="cls-13" d="M732.63,390.36V615.24H999.31V390.36ZM967.87,577.11H756.69V405.64H967.87Z"/><path class="cls-14" d="M728.62,383.58V598.46H995.29V383.58ZM967.87,576.11H756.69V404.64H967.87Z"/><path class="cls-15" d="M742.33,393.58v193.7H982.44V393.58ZM967.87,576.11H756.69V404.64H967.87Z"/><path class="cls-14" d="M748.22,398.35V582.49H975.69V398.35ZM967.87,576.11H756.69V404.64H967.87Z"/><path class="cls-16" d="M752,401.75V578.53H972.23V401.75ZM967.87,576.11H756.69V404.64H967.87Z"/><polygon class="cls-14" points="1146.4 488.58 1146.4 499.94 1161.9 510.05 1170.65 510.05 1185.44 499.31 1185.44 488.58 1146.4 488.58"/><polygon class="cls-17" points="1146.4 488.58 1158.25 493.11 1174.06 493.11 1185.44 488.58 1190.81 479.28 1190.81 451.28 1179.76 434.62 1153.64 434.62 1142.4 452.89 1141.39 479.51 1146.4 488.58"/><polygon class="cls-16" points="1161.16 506.13 1162.16 508.52 1169.71 508.52 1170.71 505.59 1174.59 503.36 1174.59 494.31 1157.01 494.31 1157.01 503.49 1161.16 506.13"/><polygon class="cls-16" points="1155.39 493.11 1155.39 503.94 1147.37 499.31 1147.37 490 1155.39 493.11"/><polygon class="cls-16" points="1176 493.5 1176 504.43 1184.08 498.54 1184.08 490.3 1176 493.5"/><ellipse class="cls-7" cx="529.08" cy="473.75" rx="38.7" ry="66.05"/><ellipse class="cls-8" cx="528.15" cy="446.07" rx="54.33" ry="92.71"/><polygon class="cls-14" points="509.56 527.28 509.56 541.91 524.41 554.9 532.8 554.9 546.97 541.1 546.97 527.28 509.56 527.28"/><polygon class="cls-17" points="509.56 527.28 520.92 533.11 536.07 533.11 546.97 527.28 552.11 515.33 552.11 479.32 541.52 457.88 516.5 457.88 505.73 481.38 504.77 515.62 509.56 527.28"/><polygon class="cls-16" points="523.71 549.86 524.66 552.94 531.9 552.94 532.86 549.17 536.57 546.29 536.57 534.66 519.73 534.66 519.73 546.46 523.71 549.86"/><polygon class="cls-16" points="518.18 533.11 518.18 547.05 510.5 541.1 510.5 529.11 518.18 533.11"/><polygon class="cls-16" points="537.92 533.62 537.92 547.68 545.66 540.1 545.66 529.51 537.92 533.62"/><ellipse class="cls-7" cx="173.54" cy="515.34" rx="65.4" ry="111.98"/><ellipse class="cls-8" cx="171.96" cy="468.4" rx="91.79" ry="157.17"/><polygon class="cls-14" points="140.56 606.09 140.56 630.87 165.65 652.91 179.82 652.91 203.75 629.5 203.75 606.09 140.56 606.09"/><polygon class="cls-17" points="140.56 606.09 159.74 615.97 185.34 615.97 203.75 606.09 212.44 585.82 212.44 524.77 194.56 488.43 152.27 488.43 134.08 528.27 132.46 586.31 140.56 606.09"/><polygon class="cls-16" points="164.45 644.35 166.07 649.58 178.29 649.58 179.91 643.19 186.19 638.31 186.19 618.59 157.73 618.59 157.73 638.6 164.45 644.35"/><polygon class="cls-16" points="155.11 615.97 155.11 639.59 142.13 629.5 142.13 609.18 155.11 615.97"/><polygon class="cls-16" points="188.47 616.82 188.47 640.66 201.55 627.8 201.55 609.86 188.47 616.82"/></g></svg>