<svg xmlns="http://www.w3.org/2000/svg" viewBox="0 0 1126.72 873.66"><defs><style>.cls-1{fill:#d1b599;}.cls-2{fill:#e5cfae;}.cls-3{fill:#5e341d;}.cls-4{fill:#492513;}.cls-5{fill:#b59678;}.cls-6{fill:#75482a;}.cls-7{fill:#a5856a;}.cls-8{fill:#c1a084;}.cls-9{opacity:0.2;}.cls-10{fill:#d99b30;}.cls-11,.cls-12{fill:#e8b121;}.cls-11{stroke:#fac746;stroke-miterlimit:10;stroke-width:14.48px;}</style></defs><title>golfarthistory</title><g id="Layer_12" data-name="Layer 12"><polyline class="cls-1" points="161.01 104.38 940.8 92.19 940.8 334.55 770.69 318.9 674.91 390.43 560.86 338.02 436.57 362.01 351.52 332.13 244.19 265.6 170.32 288.18 161.01 104.38"/><polygon class="cls-2" points="949.17 230.76 952.5 189.92 933.39 175.14 903.48 175.14 898.1 184.46 877.64 163.13 855.74 158.52 828.02 162.21 813.78 184.38 809.21 210.24 800.53 201.91 782.33 201.32 766.87 211.36 763.52 223.17 766.87 243.49 757.17 227.98 735.56 227.3 719.63 237.73 719.3 258.39 707.08 256.64 692.41 267.3 687.65 286.06 695.11 300.79 673.54 302.58 664.23 317.26 666.44 331.86 686.12 369.81 813.78 357.57 948.81 288.57 949.17 230.76"/><polygon class="cls-2" points="181.17 219.34 177.85 178.5 196.95 163.72 226.87 163.72 232.25 173.04 252.71 151.72 274.61 147.1 302.33 150.79 316.57 172.96 321.14 198.82 329.81 190.49 348.02 189.91 363.48 199.95 366.82 211.75 363.48 232.07 373.18 216.56 394.79 215.88 410.71 226.31 411.05 246.97 423.27 245.22 437.93 255.88 442.69 274.64 435.23 289.37 456.81 291.16 466.12 305.84 463.91 320.44 444.23 358.39 316.57 346.15 181.54 277.15 181.17 219.34"/><polygon class="cls-3" points="569.52 401.85 554.56 398.77 545.05 403.67 528.2 400.19 519.31 410.96 503.34 407.82 489.23 415.1 479.46 408.82 464.53 409.94 470.13 401.23 460.98 400.79 466.78 391.77 456.41 380.19 466.02 378.57 456.99 367.99 466.76 362.95 457.51 357 465.76 350.18 461.64 342.2 470.38 342.62 464.64 334.18 473.51 331.05 471.37 319.47 481.32 323.06 479.77 307.67 491.63 315.29 499.41 300.56 503.8 310.37 513.56 301.23 516.32 310.97 522.24 301.75 527.26 311.49 530.36 306.65 536.75 315.13 544.47 307.32 547.07 320.43 557.79 314.89 557.34 324.42 569.3 327.37 565.63 333.08 575.15 339.2 567.17 345.09 579.37 351.93 569.84 356.85 578.71 365.85 571.04 369.8 578.23 376 565.5 380.27 577.65 388.08 569.99 392.03 577.15 398.65 566.02 396.48 569.52 401.85"/><polygon class="cls-4" points="165.16 343.38 178.1 320.96 170.83 320.96 181.54 311.94 171.51 294.57 181.54 294.57 170.83 277.15 181.54 277.15 170.83 250.19 185.81 250.19 185.81 240.23 195.06 240.23 189.43 223.15 204.77 228.76 199.14 212.93 208.85 220 207.22 196.29 220.68 212.32 230.64 191.13 237.92 203.73 250.81 196.29 250.81 207.49 270.22 196.29 270.22 206.07 290.42 206.07 283.36 218.31 301.1 212.93 296.12 233.11 308.21 233.11 303.94 246.48 317.16 246.48 309.44 259.85 321.05 266.56 310.7 272.54 321.05 278.51 314.71 289.5 327.83 304.36 313.19 304.36 317.57 311.94 299.67 311.94 165.16 343.38"/><polygon class="cls-4" points="144.8 459.83 144.8 303.11 185.22 282.06 195.47 287.98 203.99 273.22 209.09 282.06 218.69 273.22 228.74 282.06 228.74 259.26 245.39 271.99 252.74 259.26 260.56 271.29 272.09 264.63 269.05 285.43 285.45 282.06 279.01 298.16 295.92 294.1 290.26 309.68 304.42 298.8 300.99 282.06 316.09 290.77 306.18 273.61 327.03 275.96 327.75 256.44 342.6 271.99 351.58 256.44 354.62 274.12 371.02 264.64 376.11 279.07 395.81 266.34 398.16 286.14 416.14 282.06 413.32 298.16 428.94 309.68 416.14 317.06 428.94 324.45 422.98 334.77 443.08 341 432.69 351.72 444.23 358.39 437.77 368.41 449.33 388.44 249.99 494.19 157.14 547.63 144.8 459.83"/><polygon class="cls-4" points="586.19 505.77 573.25 483.36 580.52 483.36 569.81 474.34 579.84 456.97 569.81 456.97 580.52 439.55 569.81 439.55 580.52 412.58 565.54 412.58 565.54 402.62 556.29 402.62 561.92 385.54 546.58 391.15 552.21 375.33 542.5 382.39 544.13 358.68 530.67 374.71 520.71 353.52 513.43 366.13 500.54 358.68 500.54 369.89 481.13 358.68 481.13 368.46 460.93 368.46 467.99 380.7 450.25 375.33 455.24 395.51 443.14 395.51 447.41 408.87 434.19 408.87 441.91 422.25 430.3 428.95 440.65 434.93 430.3 440.91 436.64 451.89 423.52 466.75 438.16 466.75 433.78 474.34 451.68 474.34 586.19 505.77"/><polygon class="cls-4" points="965.05 464.57 965.05 315.87 926.7 295.89 916.97 301.51 908.89 287.51 904.05 295.89 894.95 287.51 885.41 295.89 885.41 274.26 869.61 286.34 862.64 274.26 855.21 285.67 844.28 279.36 847.16 299.09 831.6 295.89 837.71 311.17 821.66 307.31 827.03 322.1 813.6 311.77 816.85 295.89 802.52 304.16 811.93 287.87 792.15 290.1 791.47 271.58 777.38 286.34 768.86 271.58 765.97 288.36 750.41 279.37 745.58 293.05 726.89 280.97 724.66 299.76 707.59 295.89 710.28 311.17 695.46 322.1 707.59 329.11 695.46 336.12 701.11 345.9 682.04 351.82 691.9 361.99 680.95 368.31 687.08 377.82 676.11 396.82 865.25 497.17 953.34 577.97 965.05 464.57"/><polygon class="cls-3" points="405.96 434.25 422.32 430.88 432.73 436.24 451.16 432.44 460.89 444.21 478.36 440.78 493.79 448.74 504.48 441.88 520.82 443.1 514.69 433.57 524.7 433.09 518.36 423.22 529.7 410.55 519.19 408.79 529.07 397.2 518.38 391.69 528.5 385.19 519.47 377.72 523.98 369 514.41 369.45 520.7 360.21 511 356.79 513.34 344.12 502.45 348.05 504.15 331.21 491.18 339.55 482.66 323.43 477.85 334.17 467.18 324.17 464.16 334.82 457.68 324.74 452.19 335.39 448.8 330.1 441.81 339.37 433.37 330.83 430.52 345.17 418.79 339.12 419.29 349.54 406.19 352.76 410.21 359.02 399.8 365.71 408.53 372.16 395.18 379.64 405.61 385.01 395.91 394.86 404.29 399.18 396.43 405.96 410.35 410.64 397.06 419.18 405.45 423.5 397.61 430.75 409.79 428.38 405.96 434.25"/><polygon class="cls-3" points="556.98 434.34 576.53 430.31 588.97 436.72 611 432.17 622.63 446.25 643.51 442.15 661.96 451.66 674.73 443.45 694.25 444.92 686.94 433.52 698.9 432.95 691.32 421.15 704.87 406.02 692.31 403.9 704.12 390.06 691.34 383.47 703.43 375.7 692.65 366.78 698.03 356.35 686.61 356.89 694.12 345.85 682.52 341.76 685.32 326.62 672.3 331.31 674.33 311.19 658.83 321.15 648.65 301.89 642.91 314.73 630.15 302.77 626.54 315.5 618.79 303.45 612.24 316.18 608.17 309.86 599.83 320.94 589.73 310.73 586.33 327.87 572.31 320.64 572.9 333.1 557.26 336.95 562.06 344.42 549.62 352.42 560.04 360.13 544.1 369.06 556.56 375.49 544.96 387.26 554.99 392.43 545.59 400.53 562.23 406.12 546.34 416.33 556.37 421.5 547 430.15 561.55 427.32 556.98 434.34"/><polygon class="cls-3" points="875.04 382.76 859.7 379.6 849.93 384.63 832.64 381.06 823.51 392.11 807.13 388.89 792.65 396.36 782.62 389.92 767.3 391.06 773.04 382.12 763.65 381.68 769.6 372.42 758.97 360.53 768.83 358.87 759.56 348.01 769.59 342.84 760.09 336.74 768.56 329.74 764.34 321.55 773.3 321.97 767.4 313.31 776.51 310.1 774.31 298.21 784.53 301.9 782.94 286.11 795.1 293.92 803.09 278.81 807.6 288.88 817.62 279.49 820.45 289.49 826.53 280.03 831.67 290.02 834.86 285.06 841.41 293.76 849.33 285.75 852 299.2 863.01 293.52 862.54 303.3 874.82 306.32 871.05 312.19 880.82 318.46 872.64 324.51 885.15 331.53 875.37 336.57 884.47 345.81 876.61 349.87 883.98 356.23 870.92 360.62 883.39 368.63 875.52 372.68 882.87 379.48 871.46 377.25 875.04 382.76"/><polygon class="cls-2" points="163.91 346.62 294.33 362.11 389.17 396.64 555.54 481.86 676.17 494.88 796.06 477.66 930.9 471.32 701.13 614.74 474.09 606.92 300.49 566.41 157.76 489.48 163.91 346.62"/><polygon class="cls-1" points="961.54 451.28 859.03 469.62 744.86 518.14 624.5 544.74 491.25 555.64 321.33 499.15 162.21 451.28 138.26 521.36 148.69 758.31 975.36 773.53 961.54 451.28"/><polygon class="cls-2" points="963.66 356.62 859.03 363.8 676.17 407.07 540.68 438.11 404.37 448.29 546.44 551.13 859.03 469.62 963.66 453 963.66 356.62"/></g><g id="Layer_13" data-name="Layer 13"><polygon class="cls-4" points="312.31 727.93 365.84 727.93 365.84 727.91 224.43 727.91 312.31 727.93"/><polygon class="cls-4" points="353.85 633.28 286.57 631.62 212.88 622.95 209.79 633.28 212.88 659 209.79 680.16 201.66 697.56 197.38 727.91 224.43 727.91 365.84 727.91 363.68 654.57 353.85 633.28"/><polygon class="cls-1" points="170.06 557.96 165.97 575.26 162.38 620.83 162.38 661.75 160.14 680.16 156.11 699.96 156.11 716.5 158.3 719.03 160.77 719.03 162 722.63 167.4 728.36 168.86 728.36 175.27 735.56 179.32 741.07 182.44 742.87 184.45 741.71 184.45 738.14 188.76 741.4 191.33 739.92 191.33 735.56 187.62 727.91 170.06 727.91 170.06 557.96"/><polygon class="cls-1" points="187.19 715.21 190.33 702.28 191.33 713.64 192.92 718.81 198.95 722.29 202.47 720.61 199.78 714.65 197.64 707.23 198.76 697.56 198.09 686.55 192.36 675.87 186.4 666.88 191.59 618.92 196.88 598.24 200.21 574.22 205.72 552.27 208.49 540.09 208.15 533.65 171.8 523.69 171.8 550.61 170.06 557.96 170.06 727.91 187.62 727.91 187.19 727.01 187.19 715.21"/><polygon class="cls-5" points="185.47 546.82 177.15 551.62 188.43 560.76 190.21 575.29 186.66 587.75 182.3 609.99 185.76 628.98 182.3 641.73 184.88 664.27 186.4 666.88 191.59 618.92 196.88 598.24 200.21 574.22 208.49 540.09 209.79 528.13 182.77 532.94 185.47 546.82"/><polygon class="cls-2" points="330.88 331.91 330.15 338.8 333.27 340.95 334.94 339.1 333.76 333.64 330.88 331.91"/><polygon class="cls-2" points="266.45 331.91 262.06 336.56 263.12 340.6 267.81 346.62 269.01 344.55 270.84 338.46 269.08 331.91 266.45 331.91"/><polygon class="cls-6" points="169.67 495.71 164.34 511.38 157.76 523.98 167.16 533.63 170.06 535.2 170.06 494.88 169.67 495.71"/><polygon class="cls-6" points="196.93 539.27 208.15 533.65 206.98 511.02 209 550 206.61 608.99 212.88 622.95 224.56 630.89 266.09 646.19 302.71 648.78 338.76 648.78 361.08 625.85 369.39 596.56 369.39 571.69 362.31 553.91 362.31 520.71 378.22 446.23 390.51 436.1 383.54 424.04 368.6 415.41 353.68 409.44 343.95 402.12 275.81 398.6 249.16 402.59 221.06 412.11 203.7 431.28 183.46 466.35 170.06 494.88 170.06 535.2 178.75 539.9 196.93 539.27"/><polygon class="cls-5" points="324.69 393.18 326.1 380.13 272.72 380.13 273.39 390.86 270.72 407.47 279.44 422.58 296.58 444.68 305.05 451.28 314.35 431.95 326.76 406.14 324.69 397.83 324.69 393.18"/><polygon class="cls-3" points="378.22 446.23 366.39 501.59 362.31 520.71 396.11 496.7 396.75 483.06 396.75 457.52 390.51 436.1 378.22 446.23"/><polygon class="cls-5" points="311.48 313.67 297.9 312.31 285.31 316.26 275.51 325.07 269.08 331.91 269.01 333.64 272.72 338.69 289.59 331.3 297.9 332.69 303.88 333.64 313.45 330.84 321.33 332.69 325 336.34 330.54 336.65 330.88 331.91 326.14 324.96 311.48 313.67"/><polygon class="cls-1" points="334.94 339.1 333.27 340.95 330.15 338.8 322.67 331.15 313.18 329.3 308.75 332.22 303.88 333.64 297.9 332.69 283.24 329.3 271.35 334.67 269.01 344.55 267.81 346.62 263.12 340.6 258.68 338.8 256.41 343.72 257.4 350.15 260.81 358.96 262.06 364.75 262.06 368.62 264.63 371.72 268.18 370.41 269.01 372.72 270.84 383.48 275.51 389.98 282.7 393.18 290.98 400.18 304.2 402.59 312.59 397.75 315.29 393.66 319.06 391.48 324.43 385.52 327.98 379.38 329.09 369.01 330.88 370.41 333.98 368.62 334.54 361.34 336.5 355.75 338.76 347.93 338.23 339.7 334.94 339.1"/><polygon class="cls-4" points="414.59 727.93 486.99 727.91 377.71 727.91 414.59 727.93"/><polygon class="cls-4" points="516.44 680.16 502.11 687.54 480.08 692.26 470.57 693.03 468.6 685.03 383.87 682.32 377.71 727.91 486.99 727.91 516.64 727.91 521.23 708.7 516.44 680.16"/><polygon class="cls-6" points="460.6 693.84 480.08 692.26 502.11 687.54 516.44 680.16 516.44 666.37 489.09 677.38 460.6 693.84"/><polygon class="cls-4" points="544.87 580.8 546.44 571.16 537.23 515.78 523.97 497.54 504.07 488.74 484.86 482.36 445.87 490.52 424.83 478.51 396.11 488.74 372.48 501.59 359.06 518.14 359.06 541.06 351.53 561.8 356.41 599.06 349.54 618.28 362.33 627.93 380.92 629.62 385.07 629.62 385.84 646 383.87 682.32 391.4 689.44 418.43 699.96 447.15 699.96 473.41 692.19 499.05 676.52 500.04 689.44 504.39 688.6 503.6 674.61 514.68 670.98 519.08 666.45 518.13 650.52 519.33 628.85 531.9 630.01 550.9 624.27 546.44 591.06 544.87 580.8"/><polygon class="cls-5" points="455.05 457.02 429 441.06 430.26 456.86 428.58 469.38 430.26 475.72 445.87 490.52 455.57 499.14 459.81 501.59 464.05 499.14 471.26 486.66 476.45 477.02 477.13 467.43 476.12 459.79 477.13 456.02 455.05 457.02"/><polygon class="cls-1" points="489.89 424.8 487.64 427.88 485.96 429.65 486.35 425.82 486.35 420.13 483.07 414.45 459.3 407.61 442.87 407.02 434.56 412.68 428.12 415.15 428.12 422.77 424.88 421.25 421.07 418.12 419.13 418.12 416.42 424.09 417.36 428.97 419.77 433.14 420.91 436.24 421.52 439.45 423.29 441.91 426.67 442.4 429 441.06 429.64 447.32 432.08 453.34 442.87 462.32 451.63 465.68 464.05 466.35 469.23 461.79 477.13 456.02 482.4 448.88 483.2 444.57 485.51 446.11 487.77 443.27 488.41 440.01 492.14 434.23 493.69 430.01 492.33 425.21 489.89 424.8"/><polygon class="cls-5" points="708.88 574.54 711.51 586.93 703.6 619.91 706.5 646.81 715.47 667.13 735.68 619.38 739.58 596 740.53 584.03 740.53 549.21 708.88 553.43 708.88 574.54"/><polygon class="cls-7" points="703.6 619.91 706.5 646.81 715.47 667.13 721.99 651.73 708.6 599.06 703.6 619.91"/><polygon class="cls-6" points="724.7 713.99 721.99 701.95 727.28 687.82 715.79 661.14 711.27 643.47 588.71 644.4 584.59 656.91 575 673.73 570.24 687.82 573.84 703.7 575.42 727.91 651.77 727.91 723.82 727.91 722.06 722.6 724.7 713.99"/><polygon class="cls-5" points="545.09 577.52 540.68 641.18 557.14 622.48 570.37 602.79 580.36 565.76 545.09 556.95 545.09 577.52"/><polygon class="cls-7" points="708.88 562.25 720.79 578.06 730.42 583.62 740.53 580.36 740.53 549.21 708.88 553.43 708.88 562.25"/><polygon class="cls-7" points="545.09 577.52 540.68 641.18 547.8 633.1 553.79 605 576.71 579.29 580.36 565.76 545.09 556.95 545.09 577.52"/><polygon class="cls-3" points="718.55 461.33 697.17 449.26 665.14 439.46 610.77 443.96 593.15 454.13 562.53 471.81 555.54 481.86 552.05 496.7 548.55 510.24 540.7 534.69 542.04 558.75 554.45 565.91 576.5 571.37 584.36 569.84 590.03 555.21 591.56 561.32 591.56 585.99 594.62 603.46 587.2 621.14 582.83 642.11 586.76 647.78 606.19 654.05 632.39 661.75 667.54 657.17 708.36 647.34 715.57 637.74 715.57 621.58 702.53 604.93 708.8 594.07 704.22 575.73 705.95 559.23 718.55 563.41 735.77 559.69 746.75 545.94 730.84 471.46 718.55 461.33"/><polygon class="cls-5" points="644.01 422.9 629.82 428.25 609.05 418.77 611.82 433.74 611.82 444.57 623.93 467.54 640.55 487.1 659.59 463.21 659.59 433.74 655.43 409.49 644.01 422.9"/><polygon class="cls-1" points="661.38 382.24 656.81 388.01 655.49 384.28 652.96 373.58 647.07 361.07 639.82 355.9 630.13 357.46 612.96 362.88 598.12 375.62 598.12 387.89 598.12 396.79 594.86 393.97 591.21 391.86 588.5 393.42 589.46 400.72 592.59 405.35 596.32 410.77 601.44 412.79 603.53 411.58 604.63 413.63 607.89 420 616.64 425.05 627.33 430.35 636.68 430.35 645.02 425.53 650.56 418.44 656.81 410.26 656.81 404.73 660.55 403.46 663.65 398.95 663.65 394.96 666.07 388.01 664.51 381.54 661.38 382.24"/><polygon class="cls-3" points="891.42 656.17 806.85 664.63 746.9 653.38 735.68 673.63 735.68 697.86 735.68 706.02 738.5 714.26 736.86 727.91 905.02 727.91 905.47 687.73 891.42 656.17"/><polygon class="cls-6" points="961.54 515.16 941.99 493.03 926.67 475.27 926.67 552.47 937.64 555.64 953.52 555.64 967.46 548.28 974.94 535.32 975.36 530.57 961.54 515.16"/><polygon class="cls-6" points="903.42 448.33 871.67 433.74 833.16 422.9 765.02 426.42 755.29 433.74 740.37 439.71 725.42 448.33 717.44 460.71 730.84 471.46 746.66 545.01 746.66 578.21 739.58 596 739.58 620.86 750.27 639.38 781.37 653.12 805.6 653.12 843.92 653.12 884.41 643.23 896.08 636.49 899.97 623.73 899.97 574.3 901.99 535.32 917.32 551.51 923.34 551.51 926.67 552.47 926.67 475.27 903.42 448.33"/><polygon class="cls-5" points="790.35 416.94 766.81 420.04 770.32 432.84 788.91 467.54 797.37 460.93 814.52 438.83 823.24 423.73 819.41 399.94 790.35 416.94"/><polygon class="cls-1" points="821.09 376.45 819.36 383.05 818.06 385.3 817.51 378.72 815.36 370.28 816.06 362.54 806.49 357.01 792.43 354.44 778.6 354.44 765.1 359.84 753.96 362.54 755.31 373 753.96 383.13 753.96 389.88 750.98 386.4 747.87 379.09 747.39 374.42 744.27 374.42 743.79 380.53 745.35 388.44 749.78 393.71 751.22 401.02 754.46 405.22 757.7 407.09 759.28 406.18 760.45 412.65 762.62 419.45 771.49 426.76 776.15 432.02 781.42 435.9 794.96 436.5 801.17 432.91 805.99 426.67 811.86 421.99 818.33 412.89 819.41 407.13 819.41 399.94 821.34 400.43 823.18 397.24 824.56 392.83 824.95 388.3 826.72 381.32 826.72 375.69 823.34 373.74 821.09 376.45"/><polygon class="cls-5" points="974.94 535.32 967.46 548.28 953.52 555.64 941.99 555.64 940.76 565.78 933.91 586.09 931.71 608.85 926.67 621.94 926.67 678.52 936.07 669.78 940.62 661.32 942.21 656.3 967.79 600.11 981.1 563.47 981.1 547.99 974.94 535.32"/><polygon class="cls-5" points="918.25 643.84 902.65 652.85 893.73 658 876.55 667.27 861.4 679.36 859.37 682.88 861.3 686.8 866.6 686.16 875.64 678.34 885.85 674.15 879.34 680.48 870.32 689.96 864.56 696.28 864.56 699.26 867.91 701.96 872.74 699.92 878.88 693.6 886.61 685.05 893.85 680.85 896.08 680.29 893.12 683.35 881.79 696.74 876.83 703.26 876.55 706.61 878.32 708.47 881.22 708.84 884.71 706.82 890.52 698.72 898.33 689.51 905.01 684.85 905.47 687.73 902.13 696.19 898.3 702.61 895.57 707.34 895.57 710.42 898.52 712.13 900.92 711.26 905.01 704.38 914.49 689.13 918.87 685.78 926.67 678.52 926.67 621.94 918.25 643.84"/><polygon class="cls-2" points="790.16 393.34 787.79 388.53 787.08 384.13 788.78 378.45 791.17 374.32 793.49 372.98 791.48 369.49 789.6 370.58 786.04 368.52 783.32 370.09 782.64 367.13 781.33 367.13 781.33 372.68 779.91 370.21 776.49 369.55 773.88 374.08 779.84 378.46 780.87 381.64 780.87 390.8 779.1 395.47 777.46 393.76 775.73 396.75 776.05 399.57 778.1 400.32 780.43 399.94 782.47 401.12 786.18 401.12 788.22 399.94 791.59 400.26 793.28 399.28 794.33 396.49 792.62 392.59 790.16 393.34"/><polygon class="cls-5" points="803.77 376.82 798.44 374.24 793.49 372.98 791.17 374.32 788.78 378.45 787.08 384.13 787.79 388.53 790.16 393.34 792.62 392.59 794.33 389.53 798.44 391.9 805.27 391.9 809.76 388.53 809.76 384.13 807.16 381.03 803.77 376.82"/><polygon class="cls-4" points="795.46 379.33 789.97 382.5 790.43 382.97 791.75 382.97 795.96 382.19 801.17 382.19 806.3 383.59 801.32 379.33 795.46 379.33"/><polygon class="cls-2" points="799.84 376.82 794.85 377.34 792.42 379.33 790.57 381.46 790.57 382.15 795.46 379.33 801.32 379.33 806.3 383.59 806.3 383.15 806.02 382.67 806.3 382.51 806.3 382.23 803.87 378.02 799.84 376.82"/><polygon class="cls-5" points="773.96 374.15 769.01 375.41 763.68 377.99 761.48 381.01 760.08 385.3 760.08 389.7 764.58 393.07 769.01 393.07 773.12 390.7 774.83 393.76 777.46 393.76 779.1 395.47 780.87 390.8 780.87 381.64 779.84 378.46 773.96 374.15"/><polygon class="cls-4" points="767.3 380.59 762.32 384.85 767.45 383.45 772.67 383.45 776.87 384.22 778.19 384.22 778.66 383.76 773.17 380.59 767.3 380.59"/><polygon class="cls-2" points="773.77 378.59 768.78 378.07 764.75 379.27 762.32 383.49 762.32 383.76 762.6 383.92 762.32 384.41 762.32 384.85 767.3 380.59 773.17 380.59 778.05 383.4 778.05 382.72 776.21 380.59 773.77 378.59"/><polygon class="cls-5" points="823.69 379.33 821.18 385.39 818.71 387.03 821.26 387.42 821.26 389.93 819.54 392.92 819.54 395.47 821.18 393.88 822.42 390.49 824.65 383.16 824.97 378.34 823.69 376.82 823.69 379.33"/><polygon class="cls-5" points="754 391.88 748.42 385.21 746.46 382.72 745.95 377.29 745.51 378.55 744.86 379.95 746.73 387.31 751.09 392.13 752.04 397.07 754 399.04 754 395.87 752.86 394.21 752.86 391.73 754 391.88"/><polygon class="cls-3" points="820.48 361.69 816.06 362.54 815.36 370.28 817.51 378.72 818.06 385.3 819.36 383.05 821.09 376.45 823.34 373.74 823.24 369.97 820.48 361.69"/><polygon class="cls-3" points="747.64 363.5 746.01 367.81 746.01 372.98 747.39 374.42 747.87 379.09 750.98 386.4 753.96 389.88 753.96 383.13 755.31 373 753.96 362.54 747.64 363.5"/><polygon class="cls-3" points="777.14 371.95 777.14 374.11 776.15 371.52 773.87 371.32 774.29 372.54 773.56 371.27 770.75 371.4 771.28 372.94 770.49 371.55 765.9 371.11 762.64 372.32 760.08 375.19 763.21 374.11 768.38 374.11 772.26 374.31 775.06 376.16 775.06 374.88 776.15 376.77 778.48 376.77 778.01 373.45 777.14 371.95"/><polygon class="cls-3" points="802.54 371.32 797.96 371.76 797.16 373.15 797.7 371.61 794.88 371.49 794.15 372.75 794.57 371.53 792.29 371.73 791.3 374.32 791.3 372.16 790.43 373.66 789.97 376.99 792.29 376.99 793.39 375.09 793.39 376.38 796.18 374.52 800.06 374.32 805.23 374.32 808.36 375.4 805.81 372.53 802.54 371.32"/><polygon class="cls-5" points="778.6 354.44 762.32 360.51 780.87 361.69 806.49 357.01 792.43 354.44 778.6 354.44"/><polygon class="cls-5" points="775.73 396.64 770.18 404.92 768.04 411.76 773.88 421.86 770.49 411.21 771.88 405.46 775.73 396.64"/><polygon class="cls-5" points="793.88 395.47 799.41 404.9 800.98 411.04 797.18 422.42 803.72 411.63 801.32 404.31 793.88 395.47"/><polygon class="cls-5" points="786.18 401.12 782.47 401.12 780.43 399.94 782 402.66 781.71 404.43 782 406.29 785.25 407.07 788.26 405.99 788.92 402.56 788.22 399.94 786.18 401.12"/><polygon class="cls-4" points="797.07 409.35 789.64 410.73 780.42 410.73 771.34 408.25 780.14 415.78 790.52 415.78 800.23 410.18 799.4 409.35 797.07 409.35"/><polygon class="cls-8" points="791.11 408.46 786.45 409.45 784.35 409.45 780.08 408.46 771.34 408.25 780.42 410.73 789.64 410.73 797.07 409.35 799.4 409.35 800.23 410.18 800.71 410.18 800.23 409.03 791.11 408.46"/><polygon class="cls-8" points="790.52 415.78 780.14 415.78 775.35 411.68 771.66 408.52 775 414.59 780.87 418.77 789.62 418.77 794.33 416.32 800.71 410.18 800.23 410.18 790.52 415.78"/><polygon class="cls-2" points="788.92 323.77 771.88 325.29 752.4 334.43 743.79 349.33 743.79 358.06 744.86 362.54 760.08 358.06 780.43 349.44 793.08 349.44 810.7 353.14 817.23 358.06 820.71 359.45 824.97 354.44 824.97 341.39 808.36 327.47 788.92 323.77"/><polygon class="cls-1" points="801.54 345.23 774.95 345.23 760.08 350.33 744.86 362.54 760.08 358.06 780.43 349.44 793.08 349.44 810.7 353.14 817.23 358.06 820.71 359.45 813.61 352.2 801.54 345.23"/><polygon class="cls-2" points="817.23 358.06 810.7 353.14 793.08 349.44 780.43 349.44 760.08 358.06 744.86 362.54 745.16 363.8 747.64 363.5 753.96 362.54 762.32 360.51 778.6 354.44 792.43 354.44 806.49 357.01 816.06 362.54 820.48 361.69 821.42 360.83 820.71 359.45 817.23 358.06"/><polygon class="cls-7" points="941.99 555.64 944.73 570.83 958.95 578.21 970.26 570.52 981.1 547.99 974.94 535.32 967.46 548.28 953.52 555.64 941.99 555.64"/><polygon class="cls-7" points="935.14 656.36 932.26 646.7 927.18 637.89 926.67 638.36 926.67 651.48 935.14 656.36"/><polygon class="cls-7" points="918.25 643.84 908.3 649.58 923.39 649.58 926.67 651.48 926.67 638.36 920.23 644.34 918.25 643.84"/><polygon class="cls-7" points="883.9 683.91 872.74 699.92 886.61 685.05 893.85 680.85 896.08 680.29 896.08 675.72 892.23 679.1 883.9 683.91"/><polygon class="cls-7" points="881.46 674.15 874.57 676.47 866.6 686.16 875.64 678.34 885.85 674.15 888.33 669.86 882.46 671.34 881.46 674.15"/><polygon class="cls-1" points="863.38 678.64 859.37 682.88 859.03 685.42 860.44 686.75 863.09 686.8 866.26 683.56 867.14 680.58 865.3 678.64 863.38 678.64"/><polygon class="cls-1" points="867.14 694.63 864 698.39 864 700.15 866.6 701.95 868.25 701 871.4 697.65 871.67 695.74 869.38 693.77 867.14 694.63"/><polygon class="cls-1" points="881.17 700.99 879.69 701.43 876.2 705.79 876.37 707.21 878.91 709.06 880.31 708.69 883.63 704.83 883.98 703.6 883.59 701.43 881.17 700.99"/><polygon class="cls-1" points="897.5 706.6 895.36 709.89 895.36 710.92 896.39 712.13 898.21 712.45 900.53 709.44 901.04 708.19 901.04 707.2 899.01 706.02 897.5 706.6"/><polygon class="cls-3" points="820.56 407.12 823.24 423.73 814.52 438.83 797.37 460.93 788.91 467.54 785.25 473.77 808.36 453.78 819.41 456.17 827.82 464.64 837.6 432.69 838.9 423.78 823.24 407.07 820.56 407.12"/><polygon class="cls-4" points="768.04 423.91 766.81 422.9 765.02 426.42 757.56 439.34 755.29 460.62 755.86 461.61 762.74 453.72 770.03 453.72 778.94 460.6 785.25 473.77 788.91 467.54 770.32 432.84 768.04 423.91"/><polygon class="cls-4" points="795.54 464.87 785.25 473.77 785.25 485.61 785.25 512.16 785.25 521.33 794.54 521.33 793.53 516.89 794.27 486.71 795.54 464.87"/><polygon class="cls-3" points="787.32 477.04 787.32 480.29 790.4 482.06 792.29 479.83 792.29 476.5 789.62 474.96 787.32 477.04"/><polygon class="cls-3" points="787.32 491.56 787.32 494.81 790.4 496.58 792.29 494.36 792.29 491.01 789.62 489.48 787.32 491.56"/><polygon class="cls-3" points="787.32 505.68 787.32 508.93 790.4 510.71 792.29 508.48 792.29 505.14 789.62 503.6 787.32 505.68"/><polygon class="cls-4" points="888.33 640.97 884.41 643.23 843.92 653.12 781.37 653.12 767.03 646.79 750.27 639.38 749.41 637.89 746.9 653.38 758.71 660.2 776.67 668.97 805.88 671.7 844.7 669.86 859.37 665.8 891.42 656.17 889.64 649.17 888.33 640.97"/><polygon class="cls-3" points="785.71 652.67 783.98 658.75 783.98 665.2 785.03 671.35 788.41 671.35 787.66 665.2 787.36 658.9 788.41 652.67 785.71 652.67"/><polygon class="cls-3" points="752.13 646.52 750.31 652.71 749.57 658.91 752.81 659.86 753.83 653.75 755.33 647.62 758.09 641.95 755.5 641.18 752.13 646.52"/><polygon class="cls-3" points="838.9 652.67 839.95 658.9 839.65 665.2 838.9 671.35 842.27 671.35 843.32 665.2 843.32 658.75 841.6 652.67 838.9 652.67"/><polygon class="cls-3" points="884.24 647.88 881.24 642.32 878.61 642.9 880.98 648.75 882.04 654.97 882.64 661.14 885.94 660.41 885.63 654.18 884.24 647.88"/><polygon class="cls-4" points="635.72 380.55 631.96 382.72 634.32 383.32 639.51 382.52 645.11 382.52 647.07 381.46 641.49 379.64 635.72 380.55"/><polygon class="cls-4" points="609.69 383.54 604.63 386.5 606.76 387.13 612.24 385.93 617.48 385.61 619.66 384.52 615.53 383.2 609.69 383.54"/><polygon class="cls-4" points="638.82 408.09 628.9 409.49 620.96 410.4 617.85 411 617.85 413.17 622.21 415.05 632.55 415.73 641.4 413.51 643.72 409.49 643.15 407.07 638.82 408.09"/><polygon class="cls-2" points="620.96 410.4 620.96 412.11 624.76 413.54 632.11 413.54 636.69 412.58 639.82 410.77 639.82 408.99 630.78 410.61 620.96 410.4"/><polygon class="cls-1" points="620.96 410.4 623.8 410.63 630.78 410.77 634.48 410.21 639.82 408.99 640.19 408.83 640.5 407.7 629.91 409.35 620.96 410.4"/><polygon class="cls-2" points="632.9 395.6 630.91 392.65 629.68 382.14 631.52 377.59 630.61 376.86 630.13 373.83 631 372.88 631.27 370.57 626.6 367.41 620.64 368.93 620.23 372.1 618.6 372.55 620.76 374.63 622.21 375.46 622.21 378.53 621.69 379.05 623.98 382.59 625.1 393.09 623.45 395.94 620.84 397.87 620.29 399.92 621.21 401.41 624.37 401.33 625.71 403.44 630.39 403.44 631.96 400.72 633.81 400.72 636.07 400.12 636.07 398.01 634.87 395.94 632.9 395.6"/><polygon class="cls-8" points="633.59 406.64 630.39 407.7 624.54 407.07 619.66 408.99 617.85 411 620.96 410.4 629.91 409.35 640.5 407.7 643.15 407.07 638.41 406.21 633.59 406.64"/><polygon class="cls-8" points="640.5 412.98 632.55 415.73 622.21 415.05 617.85 412.39 617.85 413.17 618.94 414.45 622.15 417.1 629.16 417.91 632.9 417.73 640.96 415.2 643.72 409.49 643.39 408.06 640.5 412.98"/><polygon class="cls-5" points="635.06 394.96 632.9 395.6 634.87 395.94 637.21 397.6 643.15 402.52 643.15 407.07 643.72 409.49 644.97 415.73 647.81 412.98 647.81 403.44 641.53 398.06 635.06 394.96"/><polygon class="cls-5" points="630.39 403.44 627.33 403.44 626.91 405.35 630.16 406.21 632.69 405.35 633.34 402.65 631.96 400.72 630.39 403.44"/><polygon class="cls-5" points="614.88 401.91 612.96 410.31 615.44 417.91 616.95 417.91 618.94 414.45 617.85 413.17 617.85 411 618.41 410.38 617.85 404.15 620.29 399.92 620.84 397.87 623.45 395.94 620.53 397.02 614.88 401.91"/><polygon class="cls-5" points="662.01 384.8 659.13 389.78 657.45 392.42 659.28 392.42 659.59 394.96 657.83 397.14 657.83 400.05 659.59 397.9 662.04 397.9 662.04 393.92 663.65 389.78 663.34 384.8 662.01 384.8"/><polygon class="cls-5" points="597.21 401.7 599.65 401.57 596.4 395.94 591.37 393.97 589.95 396.43 590.96 400.07 593.24 404.01 597.07 406.92 599.38 408.61 600.26 407.07 597.21 404.08 597.21 401.7"/><polygon class="cls-5" points="621.69 379.05 618.21 375.94 617.25 377.59 609.05 378.77 614.99 381.48 619.66 384.52 617.48 385.61 612.24 385.93 607.51 388.67 604.63 389.74 604.63 391.8 609.61 392.42 611.07 394.96 618.21 393.97 623.45 389.92 624.5 387.5 623.98 382.59 621.69 379.05"/><polygon class="cls-4" points="620.27 375.46 619.66 374.4 619.77 376.52 618.9 375.01 617.47 374.4 615.54 374.91 616.3 376.95 614.82 374.96 609.47 375.68 607.23 375.98 604.25 378.53 602.5 381.54 606.92 378.99 613.35 378.33 619.15 379.4 618.9 377.2 619.66 378.99 621.35 379.4 622.21 378.53 622.21 375.46 620.76 374.63 620.27 375.46"/><polygon class="cls-5" points="640.5 382.52 631.96 382.72 635.62 378.98 641.14 376.32 644.47 374.4 637.35 374.85 633.34 373.96 631.52 377.59 629.68 382.14 630.2 386.57 633.34 388.87 645.66 392.42 649.17 391.24 649.17 388.8 651.04 387.13 649.45 384.37 640.5 382.52"/><polygon class="cls-4" points="643.7 372.19 641.63 372.21 636.7 372.28 635.68 374.45 636.05 372.33 634.22 372.1 633.03 372.91 632.49 374.53 632.25 372.42 631.87 373.55 631.3 372.8 630.13 373.83 630.61 376.86 631.52 377.59 632.98 376.95 633.38 375.08 633.5 377.28 638.56 375.39 644.44 375.12 648.82 377.01 646.78 374.28 643.7 372.19"/><polygon class="cls-2" points="618.4 383.7 615.68 381.93 612.69 381.93 608.62 382.37 605.24 385.16 605.69 385.43 604.63 386.5 609.69 383.54 615.53 383.2 619.66 384.52 619.9 385.02 620.77 384.52 619.66 383.32 618.4 383.7"/><polygon class="cls-2" points="641.74 378.23 636.07 379.42 633.07 381.48 631.83 381.12 630.91 382.72 631.61 383.32 631.96 382.72 635.72 380.55 641.49 379.64 646.52 381.28 646.14 380.12 641.74 378.23"/><polygon class="cls-4" points="617.26 352.43 605.96 357.28 593.59 375.79 592.38 383.2 591.21 391.86 598.12 396.79 598.92 386.5 598.12 375.62 612.96 362.88 630.13 357.46 639.82 355.9 641.37 353.07 632.57 352.43 617.26 352.43"/><polygon class="cls-4" points="656.13 366.28 648.24 357.76 641.06 352.96 639.82 355.9 647.07 361.07 652.96 373.58 655.49 384.28 656.81 388.01 660.52 383.32 659.59 375.94 656.13 366.28"/><polygon class="cls-2" points="652.38 353.03 643.15 342.39 628.82 338.52 614.57 338.52 604.12 342.39 593.84 348.9 586.72 357.07 584.08 363.93 585.84 376.5 589.01 386.07 590.23 392.42 591.21 391.86 590.61 385.16 588.5 372.99 588.5 360.91 594.92 352.43 607.88 345.91 622.21 343.28 636.07 345.08 647.81 352.43 654.14 361.27 658.41 368.86 660.52 383.32 661.38 382.24 659.59 366.56 652.38 353.03"/><polygon class="cls-1" points="654.14 361.27 647.81 352.43 636.07 345.08 622.21 343.28 607.88 345.91 594.92 352.43 588.5 360.91 588.5 372.99 590.61 385.16 591.21 391.86 592.74 382.41 593.59 375.79 599.19 367.41 610.29 354.79 628.15 352.15 640.94 353.42 648.82 358.39 655.03 366.28 657.6 370.79 659.59 375.94 658.41 368.86 654.14 361.27"/><polygon class="cls-4" points="622.5 463.07 611.82 444.57 611.82 437.14 609.05 438.01 604.65 450.08 603.14 466.12 609.05 484.23 614.65 476.3 622.21 474.96 640.55 487.1 632.99 477.79 622.5 463.07"/><polygon class="cls-6" points="676.77 442.2 663.65 428.35 658.66 428.35 659.59 433.74 659.59 463.21 640.55 487.1 667.06 470.87 672.25 469.56 681.6 474.96 679.62 457.56 676.77 442.2"/><polygon class="cls-3" points="661.07 431.17 659.15 431.17 659.59 433.74 659.59 463.21 648.07 477.66 667.04 462.12 670 448.33 663.87 433.74 661.07 431.17"/><polygon class="cls-4" points="636.16 484.19 637.34 512.78 636.16 538.01 645.37 538.49 646.3 511.34 646.3 483.58 640.55 487.1 636.16 484.19"/><polygon class="cls-3" points="640.7 492.94 639.43 496.75 641.77 499.15 644.1 497.21 644.1 494.05 642.82 491.83 640.7 492.94"/><polygon class="cls-3" points="640.7 507.5 639.43 511.31 641.77 513.71 644.1 511.77 644.1 508.62 642.82 506.39 640.7 507.5"/><polygon class="cls-3" points="639.5 522.07 638.24 525.87 640.57 528.28 642.9 526.34 642.9 523.18 641.62 520.96 639.5 522.07"/><polygon class="cls-4" points="708.36 647.34 667.54 657.17 632.39 661.75 603.39 653.15 586.76 647.78 584.59 656.91 614.77 670.4 638.86 674.54 679.26 667.13 704.96 659.86 713.57 652.46 711.27 643.47 708.36 647.34"/><polygon class="cls-6" points="629.09 667.13 629.09 674.54 632.74 675.19 632.74 667.13 634.73 660.69 631.3 660.69 629.09 667.13"/><polygon class="cls-6" points="593.84 655.33 592.33 661.75 595.4 663.52 596.8 656.93 601.27 651.38 597.79 650.33 593.84 655.33"/><polygon class="cls-6" points="675.23 654.16 672.15 655.24 675.91 661.75 675.91 669.38 680.19 668.74 679 660.69 675.23 654.16"/><polygon class="cls-6" points="704.16 647.55 701.13 648 704.24 653.38 704.96 659.86 707.87 659 707.04 652.53 704.16 647.55"/><polygon class="cls-4" points="472.4 419.82 466.03 422.13 466.55 423.02 471.88 422.13 476.46 422.92 480.69 424.44 477.51 421.25 472.4 419.82"/><polygon class="cls-4" points="445.43 418.12 438.23 420.67 437.51 422.13 443.54 420.67 448.28 420.7 451.63 421.12 452.81 420.44 451.48 418.12 445.43 418.12"/><polygon class="cls-4" points="479.14 414.69 472.9 413.9 471.5 415.06 471.98 413.9 471.25 413.9 468.44 416.51 469.36 414.92 468.11 415.21 467.02 417.09 468.39 417.81 473.99 416.3 480.22 416.25 482.4 418.59 481.31 415.94 479.14 414.69"/><polygon class="cls-4" points="450.51 413.13 451.43 414.72 448.62 412.11 447.89 412.11 448.37 413.26 446.96 412.11 440.73 412.89 438.56 414.15 437.47 416.79 439.65 414.46 445.88 414.51 451.48 416.01 452.85 415.29 451.76 413.41 450.51 413.13"/><polygon class="cls-5" points="473.36 402.11 462.15 400.43 449.65 402.41 434.56 412.68 435.4 414.15 438.56 414.15 440.73 412.89 446.96 412.11 448.37 413.26 447.89 412.11 448.62 412.11 451.43 414.72 450.51 413.13 451.76 413.41 452.85 415.29 451.48 416.01 445.88 414.51 441.65 414.45 444.6 415.43 444.6 416.79 442.25 419.25 445.43 418.12 451.48 418.12 452.81 420.44 451.63 421.12 448.55 421.78 444.06 421.78 449.99 422.46 449.99 424.44 448.86 425.61 444.21 425.61 441.36 424.44 437.51 424.44 435.06 426.28 435.89 429.72 440.01 432.1 446.16 432.1 450.16 430.21 452.47 429.43 452.29 430.36 453.07 431.85 455.63 431.85 457.07 431.02 459.57 431.24 462.53 432.28 464.71 431.46 464.71 430.37 466.03 431.13 469.71 434.64 474.32 435.46 479.25 433.05 482.65 430.63 481.99 427.82 478.98 426.08 475.52 426.85 470.5 425.61 469.82 424.44 473.36 423.34 469.44 423.34 466.55 423.02 466.03 422.13 472.4 419.82 476.4 420.94 475.25 419.41 476.18 417.8 480.22 416.25 473.99 416.3 468.39 417.81 467.02 417.09 468.11 415.21 469.36 414.92 468.44 416.51 471.25 413.9 471.98 413.9 471.5 415.06 472.9 413.9 479.14 414.69 481.31 415.94 482.4 418.59 483.9 420.65 486.35 420.13 486.35 410.94 481.35 406.72 473.36 402.11"/><polygon class="cls-5" points="439.11 440.89 438.71 444 438.95 445.56 439.9 446.11 441.08 444.05 441.42 440.5 444.45 437.33 447.03 435.02 441.39 438.27 439.11 440.89"/><polygon class="cls-5" points="471.06 437.66 475.08 444.13 475.08 446.41 474.09 448.12 475.41 448.88 477.13 446.11 476.8 443.53 471.06 437.66"/><polygon class="cls-4" points="468.13 446.11 464.95 445.64 459.1 444.57 452.88 444.97 447.35 443.94 446.73 442.87 444.38 442.87 443.81 443.85 446.22 444.57 452.85 445.49 459.08 445.24 464.85 446.11 467.76 447.2 470.49 447.89 471.26 446.57 470.49 445.24 468.13 446.11"/><polygon class="cls-2" points="466.03 431.13 464.71 430.37 464.71 431.46 462.53 432.28 459.57 431.24 457.07 431.02 455.63 431.85 453.07 431.85 452.29 430.36 450.12 432.05 449.86 434.04 451.08 436.48 453.2 436.48 454.04 435.02 455.76 435.02 455.76 436.03 457.81 436.48 461.66 436.48 462.25 435.46 462.8 434.89 464.2 435.1 464.2 436.02 464.88 436.85 466.5 437.06 467.76 435.68 467.76 433.11 467.32 432.36 466.03 431.13"/><polygon class="cls-8" points="464.87 443.45 463.04 442.4 460.45 442.54 456.95 443.27 454.62 442.4 451.74 442.4 448.67 443.27 446.73 442.87 447.35 443.94 452.88 444.97 458.81 444.57 468.13 446.11 469.82 445.49 467.76 445.49 464.87 443.45"/><polygon class="cls-8" points="459.08 445.24 452.85 445.49 446.22 444.57 445 444.2 446.29 445.68 449.12 448.47 457.28 449.78 463.93 449.45 468.03 447.89 468.34 447.35 464.85 446.11 459.08 445.24"/><polygon class="cls-5" points="459.73 438.52 458.27 439.36 457.91 438.11 456.67 438.11 455.17 439.91 455.92 441.21 457.53 441.91 460.14 441.42 461.55 440.01 461.05 438.52 459.73 438.52"/><polygon class="cls-5" points="488.06 430.57 485.84 431.85 485.84 433.43 485.84 436 484.86 437.7 484.86 440.17 486.35 440.17 488.01 435.79 489.81 432.68 491.25 429.86 489.81 428.28 488.06 430.57"/><polygon class="cls-5" points="424.46 428.92 425.43 427.88 424.83 425.58 423.24 424.65 423.24 422.89 419.51 421.25 418.58 424.15 419.07 428.98 422.14 433.71 424.55 434.51 425.94 433.71 424.46 431.14 424.46 428.92"/><polygon class="cls-1" points="458.58 427.57 456.67 427.57 455.57 428.8 455.57 429.97 457.07 431.02 459.57 431.24 462.53 432.28 464.05 430.36 464.05 428.58 461.34 427.01 458.58 427.57"/><polygon class="cls-2" points="471.88 422.13 466.55 423.02 469.44 423.34 473.36 423.34 475.48 424.64 478.89 425.21 480.69 424.44 476.46 422.92 471.88 422.13"/><polygon class="cls-2" points="437.51 422.13 438.71 423.38 440.49 423.15 444.06 421.78 448.55 421.78 451.63 421.12 443.54 420.67 437.51 422.13"/><polygon class="cls-1" points="460.03 413.9 456.67 414.95 453.49 416.79 456.88 419.15 458.81 422.5 458.36 425.93 456.67 427.57 457.81 428.28 461.87 429.23 464.05 428.58 463.2 426.69 462.57 423.38 463.14 420.67 465.3 418.12 466.03 417.61 464.05 415.07 460.03 413.9"/><polygon class="cls-4" points="489.19 413.9 486.35 410.94 486.35 420.13 486.35 425.82 485.96 429.65 487.64 427.88 489.89 424.8 491.25 425.03 492.41 421.57 491.95 417.94 489.19 413.9"/><polygon class="cls-4" points="426.53 413.36 424.36 412.11 421.07 415.63 421.07 418.12 424.88 421.25 426.64 423.1 428.58 426.47 428.12 415.15 426.53 413.36"/><polygon class="cls-1" points="474.71 380.9 464.05 378.79 443.81 380 433.36 386.03 424.83 394.96 421.07 401.47 419.75 418.12 421.07 418.12 421.07 415.63 424.36 412.11 426.53 413.36 440.22 395.24 456.87 390.77 474.71 393.08 484.86 401.33 489.19 408.41 491.95 417.94 492.41 421.57 493.69 420.67 493.69 409.8 493.69 400.43 485.96 387.39 474.71 380.9"/><polygon class="cls-2" points="484.86 401.33 474.71 393.08 456.87 390.77 440.22 395.24 426.53 413.36 428.12 415.15 434.56 412.68 449.65 402.41 462.15 400.43 473.36 402.11 481.35 406.72 486.35 410.94 489.19 413.9 491.95 417.94 489.19 408.41 484.86 401.33"/><polygon class="cls-5" points="425.94 400.18 426.53 393.18 424.83 394.96 421.07 401.47 419.75 418.12 421.07 418.12 421.07 415.63 424.36 412.11 426.53 413.36 436.49 400.18 430.64 401.44 425.94 400.18"/><polygon class="cls-4" points="468.34 367.98 459.24 367.98 453.49 367.98 446.73 370.39 438.71 375.02 436.49 377.69 432.64 379.91 428.12 387.39 423.65 392.56 421.07 401.47 424.83 394.96 426.53 393.18 433.36 386.03 443.81 380 464.05 378.79 474.71 380.9 485.96 387.39 489.19 385.53 489.19 380.24 480.69 371.26 468.34 367.98"/><polygon class="cls-5" points="513.1 727.93 535.96 727.91 513.1 727.91 513.1 727.93"/><polygon class="cls-5" points="540.7 688.41 546.44 654.16 546.44 620.83 533.22 620.83 519.33 628.85 518.13 650.52 520.01 682 520.01 708.8 515.48 723.15 513.1 727.91 535.96 727.91 537 708.8 540.7 688.41"/><polygon class="cls-5" points="365.84 727.93 370.35 727.93 389.17 727.93 389.17 727.91 365.83 727.91 365.84 727.93"/><polygon class="cls-5" points="383.87 682.32 385.84 646 384.66 620.83 373.6 620.83 357.81 618.36 351.53 614.74 353.47 650.33 362.55 700.88 365.83 727.91 389.17 727.91 385.05 702.85 383.87 682.32"/><polygon class="cls-1" points="365.84 727.93 380.92 727.93 389.17 727.93 389.17 727.91 365.83 727.91 365.84 727.93"/><polygon class="cls-1" points="373.01 684.25 361.87 648.78 357.92 655.62 356.41 666.7 362.55 700.88 365.83 727.91 389.17 727.91 386.6 712.27 373.01 684.25"/><polygon class="cls-3" points="477.13 467.43 476.45 477.02 464.05 499.14 459.81 501.59 458.81 510.05 471.26 502.87 482.26 502.87 488.06 510.05 488.06 499.15 484.86 482.36 477.13 467.43"/><polygon class="cls-6" points="428.58 469.38 429.14 465.26 427.82 465.26 424.83 466.35 416.42 476.4 413.07 488.74 419.75 507.58 424.83 501.59 438.71 495.49 445.16 499.15 458.81 510.05 459.81 501.59 430.26 475.72 428.58 469.38"/><polygon class="cls-3" points="468.5 525.4 464.79 514.79 466.34 505.71 458.81 510.05 454.2 506.37 458.81 528.39 463.42 545.87 463.42 556.95 463.42 573.36 475.37 572.16 475.37 552.29 473.43 543.03 468.5 525.4"/><polygon class="cls-6" points="467.8 555.67 466.9 560.27 469.54 561.8 472.84 560.51 473.41 556.1 470.56 554.07 467.8 555.67"/><polygon class="cls-6" points="464.39 535.95 463.65 539.79 465.85 541.06 468.6 539.99 469.07 536.32 466.7 534.62 464.39 535.95"/><polygon class="cls-6" points="460.11 519.47 459.36 523.31 461.56 524.58 464.31 523.51 464.79 519.84 462.41 518.14 460.11 519.47"/><polygon class="cls-4" points="312.45 334.19 305.24 336.01 302.56 336.01 299.79 336.32 291.44 334.09 278.52 333.64 271.35 334.67 270.84 338.46 271.09 343.5 273.79 348.17 280.19 351.87 292.42 353.06 298.06 349.81 300.51 345.56 300.51 342.06 302.74 340.78 304.57 341.83 305.82 346.95 308.56 351.7 313.38 353.06 322.35 353.06 327.7 351.03 329.44 348.02 330.15 344.51 330.15 338.8 330.15 335.31 325.02 334.19 312.45 334.19"/><polygon class="cls-3" points="262.06 332.69 262.06 336.56 264.28 336.56 270.84 338.46 271.35 334.67 269.01 333.64 262.06 332.69"/><polygon class="cls-3" points="330.15 338.8 334.94 337.72 334.94 334.6 330.15 335.31 330.15 338.8"/><polygon class="cls-3" points="295.45 337.53 290.98 335.93 280.46 335.93 273.16 336.52 272.72 338.69 273.15 343.37 275.51 347.45 280.9 350.56 291.88 351.51 296.68 348.74 297.9 346.85 297.9 343.76 297.4 339.55 295.45 337.53"/><polygon class="cls-3" points="325 336.34 312.25 336.15 308.98 336.7 306.88 337.92 305.76 339.85 306.6 344.94 309.14 349.59 311.31 351.27 316.8 351.86 322.02 351.61 326.66 349.73 328.38 346.75 329.09 344.5 329.09 339 328.12 337.32 325 336.34"/><polygon class="cls-5" points="275.51 347.45 280.9 350.56 290.98 335.93 282.97 335.93 275.51 347.45"/><polygon class="cls-5" points="285.55 350.96 289.96 342.27 283.84 350.82 285.55 350.96"/><polygon class="cls-5" points="308.59 348.6 309.14 349.59 311.31 351.27 313.48 351.51 321.99 336.28 315.78 336.15 308.59 348.6"/><polygon class="cls-5" points="318.66 351.86 321.33 344.01 316.8 351.86 318.66 351.86"/><polygon class="cls-5" points="304.81 350.15 304.13 347.93 304.13 346.62 302.94 344.55 301.55 346.62 301.55 350 297.9 352.2 297.9 354.79 301.02 355.75 305.76 355.75 306.99 353.63 306.53 351.86 304.81 350.15"/><polygon class="cls-5" points="291.87 355.06 291.22 358.33 285.81 363.28 283.01 366.7 282.7 371.95 285.31 376.44 287.39 373.63 287.14 371.8 286.37 368.74 288.62 365.98 294.33 362.11 294.33 360.63 292.8 360.12 292.8 357.67 294.18 356.49 296.12 355.75 296.48 354.15 295.33 353.06 291.87 355.06"/><polygon class="cls-5" points="318.21 362.7 312.81 357.75 312.16 354.48 309.9 352.48 308.75 353.56 309.11 355.16 309.85 355.91 311.57 358.7 311.23 360.97 309.72 362.03 309.72 362.85 315.41 365.4 317.65 368.15 316.89 371.22 316.63 373.05 318.72 375.86 321.33 371.37 321.02 366.11 318.21 362.7"/><polygon class="cls-5" points="303.44 363.65 299.41 362.81 297.73 365.73 299.28 368.42 303.03 369.01 306.23 367.48 306.64 365.18 306.23 363.16 303.44 363.65"/><polygon class="cls-5" points="311.45 391.12 300.75 392.62 289.27 392.62 295.63 394.9 312.59 395.72 319.32 391.84 322.25 385.07 322.25 378 317.68 386.1 311.45 391.12"/><polygon class="cls-2" points="309.11 355.16 308.75 353.56 306.99 353.63 305.76 355.75 301.02 355.75 297.9 354.79 297.9 353.61 296.48 354.15 296.12 355.75 294.18 356.49 292.8 357.67 292.8 360.12 294.33 360.63 295.35 360.63 296.48 359.18 298.28 359.18 299.28 359.75 299.28 361.74 302.44 362.81 305.5 362.59 306.11 361.53 306.99 360.02 308.11 359.37 309.25 360.02 309.25 361.41 309.72 362.03 311.23 360.97 311.57 358.7 309.85 355.91 309.11 355.16"/><polygon class="cls-2" points="277.83 360.88 275.51 355 270.06 351.86 267.88 349.13 266.09 354.49 266.99 361 269.79 368.41 269.79 374.66 275.51 375.86 278.41 370.83 276.43 364.75 277.83 360.88"/><polygon class="cls-4" points="316.89 371.22 315.04 370.15 311.09 371.08 304.58 371.72 299.81 371.72 293.54 369.81 289.01 368.62 286.7 370.05 287.14 371.8 287.39 373.63 288.08 371.6 289.59 370.73 291.45 370.41 293.72 370.64 299.78 372.24 304.69 372.24 311.18 371.71 313.87 371.71 314.35 372.43 315.04 374.26 316.32 375 318.72 375.86 316.63 373.05 316.89 371.22"/><polygon class="cls-8" points="306.99 369.01 303.32 370.15 300.49 370.15 297.32 369.01 293.68 369.01 289.01 368.62 293.54 369.81 299.81 371.72 304.58 371.72 311.09 371.08 315.04 370.15 309.15 369.37 306.99 369.01"/><polygon class="cls-8" points="311.18 371.71 304.69 372.24 299.78 372.24 293.72 370.64 291.45 370.41 289.59 370.73 288.08 371.6 290.98 371.72 293.36 372.72 297.73 374.6 303.21 375.04 308.59 374.41 313.24 373.03 314.35 372.43 313.87 371.71 311.18 371.71"/><polygon class="cls-5" points="334.94 344.55 334.94 347.93 333.86 350.15 331.67 350.68 333.4 350.93 334.4 351.51 333.85 353.06 332.87 357.83 334.3 357 335.59 353.68 336.83 350.68 337.42 344.86 337.2 342.42 334.94 344.55"/><polygon class="cls-5" points="266.99 351.86 266.7 350.15 264.94 347.1 262.06 342.42 260.3 340.6 259.25 343.35 259.25 347.93 261 354.5 262.98 358.87 263.62 361.32 265.45 361.32 266.99 361 264.58 354.85 264.93 351.86 266.99 351.86"/><polygon class="cls-3" points="296.58 444.68 279.44 422.58 270.72 407.47 273.39 390.86 270.72 390.82 255.05 407.53 256.36 416.44 266.13 448.39 274.55 439.91 285.59 437.52 308.7 457.52 305.05 451.28 296.58 444.68"/><polygon class="cls-4" points="332.96 398.08 324.69 393.18 324.69 397.83 326.76 406.14 305.05 451.28 308.7 457.52 316.7 440.98 327.1 432.34 335.62 432.34 343.66 442.25 344.33 441 341.67 414.29 332.96 398.08"/><polygon class="cls-4" points="299.68 470.45 300.42 500.63 299.42 505.07 308.7 505.07 308.7 495.9 308.7 469.35 308.7 457.52 298.41 448.61 299.68 470.45"/><polygon class="cls-3" points="301.67 460.24 301.67 463.58 303.56 465.81 306.63 464.03 306.63 460.78 304.33 458.7 301.67 460.24"/><polygon class="cls-3" points="301.67 474.76 301.67 478.1 303.56 480.32 306.63 478.55 306.63 475.3 304.33 473.22 301.67 474.76"/><polygon class="cls-3" points="301.67 488.89 301.67 492.23 303.56 494.45 306.63 492.68 306.63 489.43 304.33 487.35 301.67 488.89"/><polygon class="cls-1" points="326.52 314.34 315.04 308.06 292.8 307.24 278.41 316.99 266.09 329.3 265.52 330.98 266.45 331.91 269.08 331.91 274.89 326.64 284.62 319.83 295.13 315.42 308.75 315.42 314.58 316.12 327.23 327.26 330.88 331.91 333.76 333.64 332.55 324.78 326.52 314.34"/><polygon class="cls-2" points="315.04 308.06 292.8 307.24 278.41 316.99 267.17 328.22 267.79 329.3 269.4 328.6 277.61 319.86 287.81 312.31 292.8 308.88 314.6 310.38 322.89 314.94 327.72 320.95 330.15 326.73 331.67 327.6 332.55 324.78 326.52 314.34 315.04 308.06"/><polygon class="cls-5" points="326.05 301.11 316.16 293.55 295.84 287.79 282.11 290.39 269.01 300.69 266.7 315.25 266.09 329.3 277.12 318.27 292.8 307.24 315.04 308.06 326.52 314.34 331.67 323.25 333.76 333.64 333.76 323.9 330.88 313.05 326.05 301.11"/><polygon class="cls-1" points="263.12 310.71 262.06 326.73 262.06 333.64 264.81 333.64 266.45 331.91 266.09 329.3 267.17 328.22 268.18 312.91 271.35 300.05 282.11 290.39 268.04 298.51 263.12 310.71"/><polygon class="cls-2" points="297.9 295.07 291.98 298.25 291.98 304.97 298.58 303.32 306.08 302.76 311.57 305.2 311.57 298.56 305.76 295.07 297.9 295.07"/></g><g id="Layer_14" data-name="Layer 14"><path class="cls-9" d="M92.83,66.38V836.22h955.43V66.38ZM935.64,735.45H179V121.12H935.64Z"/><path class="cls-10" d="M78.45,45.69V815.53h955.44V45.69ZM935.64,735.45H179V121.12H935.64Z"/><path class="cls-11" d="M127.58,81.52v694H987.84v-694ZM935.64,735.45H179V121.12H935.64Z"/><path class="cls-10" d="M148.69,98.59V758.31h815V98.59Zm787,636.86H179V121.12H935.64Z"/><path class="cls-12" d="M162.21,110.78V744.14h789V110.78ZM935.64,735.45H179V121.12H935.64Z"/></g></svg>