<svg xmlns="http://www.w3.org/2000/svg" viewBox="0 0 1336.97 1751.06"><defs><style>.cls-1{fill:#097b6a;}.cls-2{fill:#008e71;}.cls-3{fill:#17a88b;}.cls-4{fill:#61b863;}.cls-5{fill:#ceb995;}.cls-6{fill:#baac8e;}.cls-7{fill:#31b4dd;}.cls-8{fill:#492513;}.cls-9{fill:#5e341d;}.cls-10{fill:#91603f;}.cls-11{fill:#b6d8dd;}.cls-12{fill:#ed1b34;}.cls-13{fill:#00483b;}.cls-14{fill:#005f50;}.cls-15{fill:#31cddd;}.cls-16{fill:#4adee5;}.cls-17{fill:#89eaef;}</style></defs><title>golfartenviro</title><g id="Layer_1" data-name="Layer 1"><rect class="cls-1" x="812.03" y="1058" width="580.56" height="806.92"/><ellipse class="cls-1" cx="782.25" cy="700.42" rx="879.66" ry="653.63"/><path class="cls-2" d="M1314,1133.85s28.35,126.5-37.12,337.71C1189,1755.27,1003.84,1860,1003.84,1860H236.77l480.47-728.27,297.14-212.84Z"/><path class="cls-2" d="M989.45,101.23c97.61,8.14,178,42.4,227.63,87.39,43.44,39.35,48.23,132.6-33.5,164.14-40.84,15.76-91.85,21.51-85,49.07,9.33,37.52,167.79,17.15,183.16,116.45,24.16,156.17-276.44,120.14-261.46,181.32,15.47,63.18,236.82,145,293.75,434.25L30,937.71c-13-41.14-150.48-130.24-85.3-271.15C-49,584.13,27.18,495.4,143.91,453.42c135.89-48.88,224-44,346.12-19.79C670.44,469.43,712.51,392.9,707.37,372c-7-28.5-62.61-52.61-97-71.19-32-17.29-36.78-42.93-31.62-61.69C599.24,164.69,815.36,86.7,989.45,101.23Z"/><ellipse class="cls-3" cx="444.77" cy="1065.67" rx="676.61" ry="517.66"/><path class="cls-4" d="M847.12,199.68c-2.2,28.2,34.39,47.11,69.81,48.21,52.81,1.66,99.57-12.6,134.81-3.14,38.4,10.29,12,29.79,49.4,55.76,27.52,19.1,73.24,9.46,85.19-11,17.28-29.64-9.72-70.32-25.75-88.22-38.65-43.17-111.68-70.8-179.11-71.84C913.14,128.38,850.75,152.9,847.12,199.68Z"/><path class="cls-5" d="M823.53,163.39c-2-11.91-15.41-16.07-28.65-17.15-23.46-1.93-52.74,8.59-67.18,24.9-22.34,25.24-20.44,55.1,8.36,81.56,31.05,28.53,84.57,38.85,102.91,26,12.36-8.64,10.67-23.62,6.31-30.65-15.94-25.72-48.91-32.94-49.38-48.87C795.39,181.46,826.1,178.83,823.53,163.39Z"/><polygon class="cls-6" points="490.54 589.85 531.51 592.89 531.51 594.75 516.25 617.91 465.02 614.12 465.02 612.31 490.54 589.85"/><polygon class="cls-5" points="489.83 587.98 531.51 592.89 516.17 616.09 465.02 612.31 489.83 587.98"/><path class="cls-7" d="M1173.59,510.09c0-37.17-49.33-52.64-88.59-57.65-58.1-7.4-84.6,16.4-124.27,8.55-43.23-8.56-47-21.43-90.28-47.4-31.85-19.11-81.71-5.07-93.42,18.47-16.93,34.06,9.4,74.84,28.45,93.46,45.93,44.89,154.74,83.55,229.4,79.73C1110.53,601.38,1173.59,562.1,1173.59,510.09Z"/><path class="cls-3" d="M1121.39,1065.67s52.2,806.6-701.57,794.31c-653-10.65-586.51,17.46-586.51,17.46l-65.15-811.77Z"/></g><g id="Layer_11" data-name="Layer 11"><polygon class="cls-8" points="84.17 240.74 86.37 292.24 80.6 305.68 92.01 305.19 105.42 318.13 117.26 317.63 126.93 335.72 149.13 334.77 160.41 355.88 169.65 352.19 178.91 369.51 195.93 365.76 206.15 384.88 226.86 384 243.49 403.04 267.05 399.07 274.24 412.53 297.73 411.52 306.45 427.83 324.28 419.63 335.74 433.52 350.25 422.52 374.37 437.76 380.43 423.64 392.87 446.91 417.87 440.73 432.05 454.13 457.68 445.86 467.97 465.11 479.12 456.66 496.44 471.15 509.09 461.55 524 474.49 537.47 464.27 551.16 481.07 563.68 472.15 572.44 488.54 587.96 474.33 602.56 483.56 616.32 473.13 637.28 486.37 644.72 469.04 664.06 481.41 669.58 468.55 687.69 479.98 694.04 465.93 718.89 468.74 700.44 452.1 718.03 448.76 709.69 442.25 712.48 398.15 141.12 223.97 84.17 240.74"/><polygon class="cls-9" points="199.36 325.48 195.93 365.76 203.14 379.24 211.66 378.87 214.94 329.97 211.73 325.82 199.36 325.48"/><polygon class="cls-9" points="236.41 339.63 231.24 389.01 243.49 403.04 250.74 340.42 249.64 338.29 236.41 339.63"/><polygon class="cls-9" points="285.53 348.75 274.24 412.53 282.79 415.39 288.23 411.93 298.78 354.16 285.53 348.75"/><polygon class="cls-9" points="339.48 375.74 331.79 428.73 335.74 433.52 346.44 425.41 353.16 375.16 339.28 371.13 339.48 375.74"/><polygon class="cls-9" points="382.82 400.39 380.43 423.64 392.87 446.91 417.87 440.73 432.05 454.13 457.68 445.86 467.97 465.11 479.12 456.66 496.44 471.15 509.09 461.55 524 474.49 537.47 464.27 551.16 481.07 563.68 472.15 572.44 488.54 587.96 474.33 602.56 483.56 616.32 473.13 637.28 486.37 644.72 469.04 664.06 481.41 669.58 468.55 687.69 479.98 694.04 465.93 718.89 468.74 700.44 452.1 718.03 448.76 709.69 442.25 712.48 398.15 403.32 354.57 382.82 400.39"/><polygon class="cls-9" points="361.63 380.11 357.98 427.41 374.37 437.76 378.92 388.31 370.07 376 361.63 380.11"/><polygon class="cls-9" points="154.87 302.86 149.13 334.77 153.22 342.41 163.28 295.51 154.87 302.86"/><polygon class="cls-10" points="712.48 398.15 709.69 442.25 718.03 448.76 700.44 452.1 700.45 396.45 712.48 398.15"/><polygon class="cls-10" points="691.21 406.77 693.26 454.71 718.89 468.74 694.04 465.93 687.69 479.98 669.58 468.55 667.51 420.06 691.21 406.77"/><polygon class="cls-10" points="654.83 429.65 656.26 463.04 667.4 473.64 664.06 481.41 644.72 469.04 637.28 486.37 616.32 473.13 626.13 465.68 624.5 427.52 654.83 429.65"/><polygon class="cls-10" points="614.57 432.26 616.32 473.13 602.56 483.56 591.57 476.62 604 476.08 605.99 464.78 602.25 435.12 614.57 432.26"/><polygon class="cls-10" points="589.53 429.02 587.96 474.33 572.44 488.54 563.68 472.15 551.16 481.07 537.47 464.27 524 474.49 532.33 455.09 530.34 408.77 572.17 403.76 589.53 429.02"/><polygon class="cls-10" points="515.14 404.38 510.13 448.81 520.1 471.11 509.09 461.55 496.44 471.15 479.12 456.66 467.97 465.11 480.5 443.36 481.3 397.23 515.14 404.38"/><polygon class="cls-10" points="465.03 396.26 462.07 440.82 465.33 460.16 457.68 445.86 432.05 454.13 446.42 438.85 445.74 394.55 465.03 396.26"/></g><g id="Layer_10" data-name="Layer 10"><ellipse class="cls-8" cx="962.83" cy="174.37" rx="7.53" ry="3.77"/><rect class="cls-11" x="959.56" y="90.79" width="3.27" height="83.58"/><path class="cls-12" d="M962.83,110.27a26.49,26.49,0,0,1,15.23-4.43,25.76,25.76,0,0,1,9.67,2.21c-.24-.91-3-10.76-12.45-14.1a19.36,19.36,0,0,0-12.45,0Z"/><polygon class="cls-13" points="177.48 143.66 219.95 118.3 264.57 133.49 323.67 120.66 356.96 132.11 393.71 123.33 416.22 166.27 452.04 167.64 467.85 197.8 513.73 199.55 532.17 221.51 583.42 210.14 603.75 255.67 651.51 257.49 668.6 312.86 736.21 328.52 729.36 348.41 737.91 368.3 721.29 395.45 694.03 403.81 686.74 432.23 662.12 426.41 641.55 445.17 618.45 430.38 592.25 443.08 577.54 423.76 537.92 427.35 523.66 406.5 492.91 411.19 474.88 399.45 448.19 407.78 431.07 385.03 374.83 402.93 369.93 382.08 331.58 372.38 330.94 351.28 314.72 360.82 285.91 348.54 262.06 362.01 249.59 338.23 224.62 341.95 212.09 326.14 177.87 324.81 171.1 302.27 147.54 301.45 134.79 277.5 110.57 278.69 108.66 265.68 90.33 261.33 88.27 243.46 79.21 237.44 83.21 218.28 82.38 198.71 141.13 165.14 163.43 156.16 177.48 143.66"/><polygon class="cls-14" points="206.87 85.57 245.47 76.25 274.99 85.09 334.09 72.27 367.38 83.71 404.13 74.94 426.64 117.88 462.46 119.24 478.27 149.4 524.14 151.15 542.59 173.11 593.84 161.74 614.17 207.28 661.92 209.1 679.01 264.46 713.72 265.78 736.68 292.83 722.16 299.79 736.21 328.52 711.02 342.75 717.09 374.28 674.32 379.51 669.94 404.84 626.48 393.84 594.87 401.98 587.96 375.37 548.34 378.96 534.08 358.1 503.33 362.79 485.3 351.05 458.61 359.39 441.49 336.63 385.25 354.53 385.51 334.99 343.54 333.39 343.83 311.3 315.42 322.31 296.33 300.14 272.48 313.62 260.01 289.83 235.04 293.55 226.84 277.91 188.32 284.12 183.04 256.72 149.94 255.46 150.24 233.37 114.72 232.01 112.92 213.4 96.2 212.76 96.35 201.38 82.38 198.71 105.9 158.68 133.34 139.37 151.55 116.75 173.85 107.77 206.87 85.57"/><path class="cls-6" d="M797.19,192.91c6.15-12.1,17.21-15.34,15.29-23.5-1.3-5.49-4.34-8.75-7.51-10.28-10.14-4.9-21.7-3.53-28.32-2.72-26.54,3.24-40,26.77-40,26.77-2.81,4.29-12.65,19.76-9.83,40.79,3.37,25.2,22.29,38.73,25.5,40.94-33.46-18.2-47.66-46.87-37-77.35,12.88-36.76,57.19-43.07,79.5-41.32,1.85.14,25.78.48,28.65,17.15,1.47,8.49-6.8,12.72-10.08,15.07Z"/></g><g id="Layer_3" data-name="Layer 3"><path class="cls-8" d="M417.93,593.92l-.65,33,5.9,5.91c1.68,8.59,6.24,17.37,8.35,26.32q1.17,4.94,2.38,9.78a53.28,53.28,0,0,0-1.19,17.18c.29,3.16,6.08,12.77,6.08,12.77l2.66,13.92,8.78,2.05,8-7.71-4.37-41.2a98.82,98.82,0,0,0-5.49-47l-5.81-40.19L427.35,560h-41.9l7.85,27.27a73.26,73.26,0,0,0-5.64,35.45l-.82,27.92-5.43,9.41s-5.73,6.76-7.73,13.38a34.39,34.39,0,0,0,0,19.64l-1.34,18.36,8.55,3.39,9.64-4.73,6.83-35.28c2.18-3.11,6.29-7.35,9.16-12.61,2.19-4,3.31-8.49,5.36-14.28,1.68-4.75,5-11.87,5.4-21Z"/><polygon class="cls-8" points="443.79 712.46 442.53 717.81 442.53 723.71 449.27 724.9 455.95 723.71 456.28 720.93 458.78 722.37 470.59 715.55 478.66 703.76 469.99 700.81 463.34 704.65 455.49 703.8 447.56 706.71 443.79 712.46"/><polygon class="cls-8" points="374.94 712.46 373.68 717.81 373.68 723.71 380.42 724.9 387.1 723.71 387.43 720.93 389.93 722.37 401.74 715.55 409.81 703.76 401.13 700.81 394.48 704.65 386.64 703.8 378.71 706.71 374.94 712.46"/><path class="cls-8" d="M426.17,529.71l-46.6,3.41c-1,1-4.64,14.08-3.66,20.61.7,4.65,11.56,20.36,11.56,20.36l6.1,21.65,49-16.94-2.31-9.46-5.28-27.91Z"/><path class="cls-8" d="M380.93,532.64c-4.36-3.19-13,0-14.21,1.74-4.44,6.64-4.73,15-4.73,15l-13.26,37.46,10.33.67A70.11,70.11,0,0,0,381.32,554l3.73-12.65C385,540.61,384.87,535.53,380.93,532.64Z"/><path class="cls-8" d="M362.16,575.37c.39,3.39,1.86,9.54,1.06,15.2-.9,6.36-8.54,13.46-18.63,29.8l-7.3-5.72a113.19,113.19,0,0,0,8.58-25c1.2-5.62,2.83-11.54,6.16-13.68C354.12,574.61,359.37,574.58,362.16,575.37Z"/><path class="cls-8" d="M410.5,532.32c-.82-6.92,7-11.64,9.45-13.11A23.71,23.71,0,0,1,433.6,516L448,508.74a44.09,44.09,0,0,1-8.87-2.44c-7.1-2.85-19.3-12.87-19.3-12.87V487s23.35,4.48,34.5,9.66c7.55,3.5,13.59,6.78,13.71,11.7.11,4-8,18.69-25.5,25.8l-14.06,13.43C421.79,546.58,411.1,537.36,410.5,532.32Z"/><path class="cls-8" d="M371.86,532.61l14.87-4.93L386,516.14a20.19,20.19,0,0,1-8.54-7.42c-1-1.63-3.8-6-3-11.64,1-6.77,6.31-10.49,8-11.63a17.77,17.77,0,0,1,11.88-3.52,17.54,17.54,0,0,1,10.71,5.2c1.79,1.89,2.75,2.41,6.82,13.78,2.39,6.69,2.05,8.93.84,11.18s-4,3.3-4.56,5.93a7.34,7.34,0,0,0,.73,5.13L421,521.77l4.11,5.86-18.66,16.3-33.68-3.22Z"/><path class="cls-8" d="M419.82,493.43c-.81.95-2.08,2.15-3.54,2.05s-1.95-1.31-3.55-2.05c-1.08-.5-2.84-.89-5.64,0L402,487a30.89,30.89,0,0,1,10-1.3,30.49,30.49,0,0,1,7.79,1.3Z"/><polygon class="cls-8" points="339.03 610.82 333.09 614.25 323.06 612.53 318.54 620.38 322.53 627.29 339.03 627.29 344.59 620.38 339.03 610.82"/><rect class="cls-8" x="331.18" y="567.28" width="3.91" height="146.22" transform="translate(-116.85 75.95) rotate(-11.08)"/><path class="cls-8" d="M321.41,567.77c-2.38-1.31-7.78.46-7.79,2.17,0,2.14,2.38,2.4,3.21,3.48a6.8,6.8,0,0,0-.75,3.63c.3,2.07,1.37,2.38,1.84,2.91a5.23,5.23,0,0,0,1.22,6.2l5.68-1Z"/><path class="cls-8" d="M348,706.22a7.53,7.53,0,0,1,3.13-5.41c2.3-1.5,5.85-1.73,7.29,0,2.12,2.55-1.63,7.86-2,8.32-.52.73-4.19,5.77-8.46,4.88a5.84,5.84,0,0,1-2.75-1.5Z"/></g><g id="Layer_14" data-name="Layer 14"><path class="cls-15" d="M1052.75,506.18s-15.29-90-33.92-28.14c-7.81,25.94-8.21,31.23-8.21,31.23l-19.32-7.41c7.25-44.61,24.68-71.66,40.56-66.09C1046.13,441.61,1049.2,477.94,1052.75,506.18Z"/><path class="cls-16" d="M1021.74,469.34c2-4.58-.5-9.16-3.49-9.94-2.81-.73-6.52,1.7-8.1,6.23,0,0,.56-7.47-2.55-8-2.21-.39-4.89,2.73-5.71,5.51a118.59,118.59,0,0,0-4.26,12.5c1.79-3.61,4.21-6.14,6.08-5.59s3.31,3.56,2.48,7.9c1.93-4.11,4.5-6,7.5-5.09a6.72,6.72,0,0,1,4.21,8.6Z"/><path class="cls-17" d="M1018.18,480.39c1.34-4.58-.5-9.16-3.49-9.94-2.81-.73-6.52,1.7-8.1,6.23,1.17-4.39,0-7.39-1.86-8-2.32-.79-5.75,2.49-6.7,5.55l-.77,2.69c1.7-3.84,4.49-6.08,6.36-5.53s2.87,4.33,2,8.67c1.93-4.12,5-6.73,7.94-5.87s4.92,5.44,3.68,9.61Z"/><polygon class="cls-16" points="995.32 494.12 990.91 486.49 983.04 485.24 984.74 489.68 980.65 487.32 979.07 492.97 974.11 492.97 980.35 496.57 974.11 500.18 978.69 500.18 984.71 502.43 987.29 506.9 992.48 505.1 999.15 508.94 1003.2 506.6 1012.5 513.2 1017.6 511.5 1015.89 508.53 1022.89 508.53 1018.17 504.77 1025.35 503.94 1023.97 499.22 1017.79 499.22 1017.79 495.63 1012.81 498.5 1007.78 497.71 1006.27 495.09 1003.08 496.93 1000.28 492.09 995.32 494.12"/><path class="cls-17" d="M1064.17,501.09c-.76-4.71-4.4-8-7.43-7.47-2.85.56-5.16,4.34-4.63,9.11-.83-4.47-3.17-6.67-5.13-6.44-2.43.28-4.12,4.72-3.66,7.89l.46,2.76c-.12-4.2,1.44-7.42,3.36-7.73s4.46,2.67,5.57,7c0-4.54,1.57-8.2,4.65-8.71s6.78,2.79,7.45,7.09Z"/><path class="cls-17" d="M1041.23,501.09c.76-4.71,4.4-8,7.43-7.47,2.85.56,5.16,4.34,4.63,9.11.83-4.47,3.17-6.67,5.13-6.44,2.43.28,4.12,4.72,3.66,7.89l-.46,2.76c.12-4.2-1.44-7.42-3.36-7.73s-4.46,2.67-5.57,7c0-4.54-1.57-8.2-4.65-8.71s-6.78,2.79-7.45,7.09Z"/><path class="cls-15" d="M1052.75,507.17s15.29-90,33.91-28.15c7.82,26,8.22,31.24,8.22,31.24l19.32-7.42c-7.25-44.61-24.68-71.65-40.56-66.09C1059.37,442.6,1056.3,478.93,1052.75,507.17Z"/><path class="cls-16" d="M1083.76,470.32c-2-4.58.5-9.16,3.49-9.93,2.81-.73,6.52,1.69,8.1,6.22,0,0-.57-7.47,2.55-8,2.21-.39,4.89,2.74,5.71,5.52a118,118,0,0,1,4.26,12.49c-1.79-3.6-4.21-6.14-6.08-5.58s-3.31,3.56-2.48,7.9c-1.93-4.12-4.5-6-7.5-5.1a6.71,6.71,0,0,0-4.21,8.6Z"/><path class="cls-17" d="M1087.31,481.37c-1.33-4.58.51-9.16,3.5-9.93,2.81-.73,6.52,1.69,8.1,6.22-1.17-4.39,0-7.38,1.85-8,2.33-.79,5.76,2.49,6.7,5.55l.78,2.69c-1.7-3.84-4.49-6.08-6.36-5.53s-2.87,4.33-2,8.67c-1.93-4.11-4.95-6.73-7.94-5.86s-4.92,5.43-3.68,9.6Z"/><polygon class="cls-16" points="1110.18 495.1 1114.59 487.47 1122.46 486.23 1120.76 490.66 1124.85 488.3 1126.43 493.95 1131.39 493.95 1125.15 497.56 1131.39 501.16 1126.81 501.16 1120.79 503.41 1118.2 507.89 1113.02 506.08 1106.35 509.93 1102.3 507.59 1093 514.18 1087.9 512.48 1089.61 509.51 1082.6 509.51 1087.33 505.75 1080.15 504.92 1081.53 500.2 1087.71 500.2 1087.71 496.61 1092.68 499.49 1097.72 498.69 1099.23 496.08 1102.42 497.92 1105.22 493.07 1110.18 495.1"/></g></svg>