<svg xmlns="http://www.w3.org/2000/svg" xmlns:xlink="http://www.w3.org/1999/xlink" viewBox="0 0 1126.72 873.66"><defs><style>.cls-1,.cls-17,.cls-19{fill:none;}.cls-2{fill:#492513;}.cls-3{fill:#5e341d;}.cls-4{fill:#75482a;}.cls-5{fill:#b6d8dd;}.cls-6{fill:#97b7b7;}.cls-7{fill:#d0eae9;}.cls-8{fill:#e7f2f2;}.cls-9{fill:#8f9b9b;}.cls-10{fill:#91603f;}.cls-11{fill:#d6e5e5;}.cls-12{fill:#097b6a;}.cls-13{fill:#17a88b;}.cls-14{fill:#ceb995;}.cls-15{fill:#baac8e;}.cls-16{fill:#5d7984;}.cls-17{stroke:#6f8c9b;}.cls-17,.cls-19{stroke-miterlimit:10;stroke-width:18.43px;}.cls-18{fill:#fff;}.cls-19{stroke:#8facc1;}.cls-20{fill:#30a4d1;}.cls-21{clip-path:url(#clip-path);}.cls-22{fill:#31cddd;}.cls-23{fill:#6f8c9b;}.cls-24{fill:#8facc1;}.cls-25{fill:#a7c2d3;}.cls-26{fill:#008e71;}.cls-27{fill:#4adee5;}.cls-28{fill:#89eaef;}</style><clipPath id="clip-path"><ellipse class="cls-1" cx="562.62" cy="642.6" rx="107.53" ry="66.64"/></clipPath></defs><title>golfarthome</title><g id="Layer_7" data-name="Layer 7"><polygon class="cls-2" points="1093.71 140.45 1037.39 42.89 747.35 31.1 753.02 140.45 1093.71 140.45"/><polygon class="cls-2" points="22.64 140.45 78.96 42.89 369 31.1 363.33 140.45 22.64 140.45"/><polygon class="cls-3" points="1134.88 130.82 789.95 130.82 774.32 336.2 1159.73 336.2 1134.88 130.82"/><polygon class="cls-3" points="-17.27 133.24 327.67 133.24 343.29 338.62 -42.12 338.62 -17.27 133.24"/></g><g id="Layer_8" data-name="Layer 8"><polygon class="cls-4" points="815.63 71.66 797.09 221.13 327.14 221.13 305.76 71.66 815.63 71.66"/></g><g id="Layer_6" data-name="Layer 6"><rect class="cls-5" x="323.96" y="221.13" width="476.97" height="350.88"/><polygon class="cls-5" points="562.12 42.91 314.42 224.23 809.82 224.23 562.12 42.91"/><rect class="cls-6" x="-11.77" y="299.66" width="335.74" height="400"/><rect class="cls-6" x="800.94" y="300.66" width="333.95" height="400"/><polygon class="cls-5" points="1050.55 244.17 973.38 300.66 1127.72 300.66 1050.55 244.17"/><rect class="cls-5" x="973.37" y="300.66" width="154.34" height="333.5"/><polygon class="cls-5" points="884.8 244.61 807.63 301.1 961.97 301.1 884.8 244.61"/><rect class="cls-5" x="807.63" y="301.1" width="154.34" height="333.5"/><polygon class="cls-5" points="239.6 243.66 162.43 300.15 316.77 300.15 239.6 243.66"/><rect class="cls-5" x="162.43" y="300.15" width="154.34" height="333.5"/><polygon class="cls-5" points="73.85 244.09 -3.32 300.59 151.03 300.59 73.85 244.09"/><rect class="cls-5" x="-3.32" y="300.59" width="154.34" height="333.5"/></g><g id="Layer_5" data-name="Layer 5"><rect class="cls-6" x="406.23" y="277.97" width="312" height="177.55"/><polygon class="cls-7" points="562.71 160.78 402.61 277.97 722.8 277.97 562.71 160.78"/><rect class="cls-8" x="699.78" y="278.06" width="19" height="167"/><rect class="cls-8" x="627.78" y="380.06" width="91" height="5"/><rect class="cls-8" x="688.78" y="385.06" width="3" height="60"/><rect class="cls-8" x="674.78" y="385.06" width="3" height="60"/><circle class="cls-8" cx="690.28" cy="388.06" r="4"/><circle class="cls-8" cx="690.28" cy="394.56" r="2.5"/><circle class="cls-8" cx="676.28" cy="388.18" r="4"/><circle class="cls-8" cx="676.28" cy="394.68" r="2.5"/><rect class="cls-8" x="618.78" y="278.06" width="19" height="167"/><rect class="cls-8" x="660.59" y="385.15" width="3" height="60"/><rect class="cls-8" x="645.59" y="385.15" width="3" height="60"/><circle class="cls-8" cx="662.09" cy="388.15" r="4"/><circle class="cls-8" cx="662.09" cy="394.65" r="2.5"/><circle class="cls-8" cx="647.09" cy="388.27" r="4"/><circle class="cls-8" cx="647.09" cy="394.77" r="2.5"/><rect class="cls-8" x="487.63" y="278.1" width="19" height="167"/><rect class="cls-8" x="415.63" y="380.1" width="91" height="5"/><rect class="cls-8" x="476.63" y="385.1" width="3" height="60"/><rect class="cls-8" x="462.63" y="385.1" width="3" height="60"/><circle class="cls-8" cx="478.13" cy="388.1" r="4"/><circle class="cls-8" cx="478.13" cy="394.6" r="2.5"/><circle class="cls-8" cx="464.13" cy="388.23" r="4"/><circle class="cls-8" cx="464.13" cy="394.73" r="2.5"/><rect class="cls-8" x="406.63" y="278.1" width="19" height="167"/><rect class="cls-8" x="448.43" y="385.19" width="3" height="60"/><rect class="cls-8" x="433.43" y="385.19" width="3" height="60"/><circle class="cls-8" cx="449.93" cy="388.19" r="4"/><circle class="cls-8" cx="449.93" cy="394.69" r="2.5"/><circle class="cls-8" cx="434.93" cy="388.31" r="4"/><circle class="cls-8" cx="434.93" cy="394.81" r="2.5"/><rect class="cls-8" x="696.01" y="277.97" width="26.79" height="6.06"/><rect class="cls-8" x="698.07" y="284.03" width="22.67" height="3.93"/><rect class="cls-8" x="696.01" y="438.6" width="26.79" height="6.06"/><rect class="cls-8" x="698.07" y="434.67" width="22.67" height="3.93"/><rect class="cls-8" x="614.89" y="277.97" width="26.79" height="6.06"/><rect class="cls-8" x="616.95" y="284.03" width="22.67" height="3.93"/><rect class="cls-8" x="614.89" y="438.6" width="26.79" height="6.06"/><rect class="cls-8" x="616.95" y="434.67" width="22.67" height="3.93"/><rect class="cls-8" x="484" y="278.21" width="26.79" height="6.06"/><rect class="cls-8" x="486.06" y="284.28" width="22.67" height="3.93"/><rect class="cls-8" x="484" y="438.85" width="26.79" height="6.06"/><rect class="cls-8" x="486.06" y="434.92" width="22.67" height="3.93"/><rect class="cls-8" x="402.73" y="278.21" width="26.79" height="6.06"/><rect class="cls-8" x="404.79" y="284.28" width="22.67" height="3.93"/><rect class="cls-8" x="402.73" y="438.85" width="26.79" height="6.06"/><rect class="cls-8" x="404.79" y="434.92" width="22.67" height="3.93"/><rect class="cls-9" x="731.9" y="466.92" width="404.33" height="272.45"/><rect class="cls-9" x="-44.44" y="466.92" width="404.33" height="272.45"/><rect class="cls-8" x="327.23" y="444.66" width="470" height="93"/><rect class="cls-10" x="520.53" y="319.85" width="83.35" height="124.92"/><rect class="cls-4" x="525.96" y="328.81" width="72.54" height="108.72"/><rect class="cls-10" x="567.75" y="336.06" width="10.1" height="73.07"/><rect class="cls-10" x="567.75" y="414.35" width="10.22" height="17.6"/><rect class="cls-10" x="580.99" y="336.06" width="10.1" height="73.07"/><rect class="cls-10" x="580.99" y="414.35" width="10.22" height="17.6"/><rect class="cls-10" x="534.08" y="336.19" width="10.1" height="73.07"/><rect class="cls-10" x="534.08" y="414.47" width="10.22" height="17.6"/><rect class="cls-10" x="547.33" y="336.19" width="10.1" height="73.07"/><rect class="cls-10" x="547.33" y="414.47" width="10.22" height="17.6"/><polygon class="cls-11" points="614.89 452.51 614.89 464.92 510.79 464.85 510.79 452.51 614.89 452.51"/><polygon class="cls-11" points="622.83 475.76 622.83 488.16 503.89 488.09 503.89 475.76 622.83 475.76"/></g><g id="Layer_1" data-name="Layer 1"><polygon class="cls-12" points="201.97 581.31 213.59 561.18 207.05 561.18 216.67 553.08 207.67 537.49 216.67 537.49 207.05 521.85 216.67 521.85 207.05 497.63 220.51 497.63 220.51 488.69 228.81 488.69 223.75 473.35 237.53 478.39 232.47 464.18 241.2 470.52 239.73 449.24 251.82 463.63 260.76 444.6 267.3 455.92 278.87 449.24 278.87 459.3 296.3 449.24 296.3 458.02 314.44 458.02 308.09 469.01 324.02 464.18 319.55 482.3 330.41 482.3 326.58 494.3 338.44 494.3 331.51 506.31 341.94 512.33 332.65 517.7 341.94 523.07 336.25 532.93 348.02 546.27 334.88 546.27 338.82 553.08 322.75 553.08 201.97 581.31"/><polygon class="cls-12" points="-33.43 621.25 -33.43 487.73 1 469.79 9.74 474.84 17 462.27 21.34 469.79 29.51 462.27 38.08 469.79 38.08 450.38 52.26 461.22 58.52 450.38 65.19 460.62 75.01 454.95 72.42 472.67 86.4 469.79 80.91 483.51 95.31 480.05 90.49 493.33 102.55 484.06 99.63 469.79 112.5 477.22 104.06 462.6 121.81 464.6 122.42 447.97 135.08 461.22 142.73 447.97 145.32 463.03 159.29 454.96 163.63 467.25 180.41 456.4 182.42 473.27 197.74 469.79 195.33 483.51 208.63 493.33 197.74 499.62 208.63 505.91 203.56 514.7 220.68 520.01 211.83 529.14 221.66 534.82 216.16 543.36 226.01 560.42 56.18 650.52 -22.92 696.05 -33.43 621.25"/><polygon class="cls-12" points="922.36 585.36 910.73 565.23 917.27 565.23 907.65 557.13 916.65 541.53 907.65 541.53 917.27 525.89 907.65 525.89 917.27 501.68 903.82 501.68 903.82 492.74 895.51 492.74 900.57 477.4 886.79 482.44 891.85 468.23 883.13 474.57 884.59 453.28 872.5 467.68 863.56 448.65 857.02 459.97 845.45 453.28 845.45 463.34 828.02 453.28 828.02 462.07 809.88 462.07 816.23 473.05 800.3 468.23 804.77 486.35 793.91 486.35 797.74 498.35 785.88 498.35 792.81 510.36 782.38 516.38 791.67 521.75 782.38 527.11 788.07 536.98 776.3 550.32 789.44 550.32 785.51 557.13 801.58 557.13 922.36 585.36"/><polygon class="cls-12" points="1157.75 625.29 1157.75 491.78 1123.32 473.84 1114.58 478.88 1107.33 466.31 1102.98 473.84 1094.81 466.31 1086.24 473.84 1086.24 454.42 1072.06 465.27 1065.8 454.42 1059.13 464.67 1049.31 459 1051.9 476.71 1037.93 473.84 1043.42 487.56 1029.01 484.1 1033.83 497.37 1021.77 488.1 1024.69 473.84 1011.82 481.27 1020.27 466.64 1002.51 468.64 1001.9 452.01 989.25 465.27 981.59 452.01 979 467.08 965.03 459.01 960.69 471.29 943.91 460.45 941.91 477.32 926.59 473.84 929 487.56 915.69 497.37 926.59 503.67 915.69 509.96 920.76 518.75 903.64 524.06 912.49 533.19 902.66 538.87 908.17 547.41 898.32 564.47 1068.14 654.57 1147.24 727.12 1157.75 625.29"/><ellipse class="cls-13" cx="562.23" cy="789.99" rx="612.1" ry="281.59"/><ellipse class="cls-14" cx="564.57" cy="932.73" rx="572.21" ry="388.38"/><ellipse class="cls-15" cx="563.4" cy="844.52" rx="335.97" ry="258.04"/><ellipse class="cls-13" cx="563.79" cy="851.16" rx="335.97" ry="258.04"/><polygon class="cls-11" points="633.29 500.6 633.29 513 493.43 512.93 493.43 500.6 633.29 500.6"/></g><g id="Layer_3" data-name="Layer 3"><ellipse class="cls-16" cx="562.71" cy="668.03" rx="116.35" ry="89.36"/><ellipse class="cls-17" cx="562.71" cy="668.03" rx="116.35" ry="89.36"/><ellipse class="cls-18" cx="562.14" cy="647.09" rx="110.36" ry="68.77"/><ellipse class="cls-19" cx="562.14" cy="647.09" rx="110.36" ry="68.77"/><ellipse class="cls-20" cx="562.65" cy="642.84" rx="107.33" ry="66.88"/><g class="cls-21"><ellipse class="cls-22" cx="561.61" cy="660.8" rx="98.23" ry="61.21"/></g><ellipse class="cls-16" cx="562.89" cy="649.96" rx="60.78" ry="37.87"/><ellipse class="cls-16" cx="563.31" cy="639.84" rx="60.78" ry="37.87"/><ellipse class="cls-23" cx="562.62" cy="628.42" rx="45.12" ry="28.11"/><ellipse class="cls-23" cx="562.62" cy="623.47" rx="45.12" ry="28.11"/><rect class="cls-24" x="554.91" y="578.2" width="13.61" height="40.19"/><ellipse class="cls-24" cx="561.72" cy="618.39" rx="6.81" ry="4.24"/><ellipse class="cls-24" cx="561.72" cy="584.26" rx="13.73" ry="8.55"/><ellipse class="cls-25" cx="561.72" cy="581.75" rx="13.73" ry="8.55"/></g><g id="Layer_4" data-name="Layer 4"><polygon class="cls-10" points="562.29 31.1 288.98 230.54 314.89 230.54 562.88 48.52 562.29 31.1"/><polygon class="cls-10" points="562.42 31.1 835.73 230.54 809.82 230.54 561.83 48.52 562.42 31.1"/><polygon class="cls-10" points="562.84 147.65 371.75 287.09 389.87 287.09 563.25 159.83 562.84 147.65"/><polygon class="cls-10" points="562.92 147.65 754.02 287.09 735.9 287.09 562.51 159.83 562.92 147.65"/><polygon class="cls-10" points="1050.36 235.93 961.27 300.61 973.38 300.66 1050.53 245.41 1050.36 235.93"/><polygon class="cls-10" points="1050.36 235.93 1139.23 300.61 1127.13 300.61 1050.2 245.41 1050.36 235.93"/><polygon class="cls-10" points="884.51 235.93 795.59 301.1 807.63 301.1 884.67 245.41 884.51 235.93"/><polygon class="cls-10" points="884.51 235.93 973.38 300.61 961.46 300.75 884.34 245.41 884.51 235.93"/><rect class="cls-5" x="782.8" y="296.76" width="14.29" height="147.91"/><polygon class="cls-10" points="239.68 235.75 150.59 300.43 162.69 300.49 239.84 245.23 239.68 235.75"/><polygon class="cls-10" points="239.68 235.75 328.54 300.43 316.44 300.43 239.51 245.23 239.68 235.75"/><polygon class="cls-10" points="73.82 235.75 -15.09 300.92 -3.06 300.92 73.99 245.23 73.82 235.75"/><polygon class="cls-10" points="73.82 235.75 162.69 300.43 150.78 300.57 73.66 245.23 73.82 235.75"/><rect class="cls-5" x="326.91" y="296.76" width="14.29" height="147.91"/></g><g id="Layer_9" data-name="Layer 9"><rect class="cls-10" x="1055.47" y="318.99" width="42.13" height="122.17"/><rect class="cls-10" x="1002.8" y="319.04" width="42.13" height="122.17"/><rect class="cls-10" x="889.61" y="318.9" width="42.13" height="122.17"/><rect class="cls-10" x="836.94" y="318.95" width="42.13" height="122.17"/><rect class="cls-10" x="244.93" y="318.93" width="42.13" height="122.17"/><rect class="cls-10" x="192.26" y="318.97" width="42.13" height="122.17"/><rect class="cls-10" x="79.07" y="318.84" width="42.13" height="122.17"/><rect class="cls-10" x="26.4" y="318.88" width="42.13" height="122.17"/></g><g id="Layer_13" data-name="Layer 13"><polygon class="cls-26" points="621.88 534.5 635.31 531.73 643.85 536.14 658.98 533.01 666.96 542.68 681.3 539.86 693.97 546.4 702.74 540.76 716.15 541.77 711.12 533.94 719.34 533.55 714.13 525.45 723.44 515.05 714.81 513.6 722.92 504.1 714.14 499.57 722.45 494.24 715.04 488.11 718.74 480.94 710.89 481.32 716.05 473.74 708.09 470.93 710.01 460.53 701.07 463.75 702.46 449.94 691.82 456.77 684.83 443.55 680.89 452.37 672.12 444.15 669.64 452.9 664.33 444.62 659.83 453.37 657.04 449.02 651.3 456.63 644.37 449.62 642.04 461.39 632.41 456.43 632.82 464.98 622.07 467.63 625.37 472.76 616.82 478.25 623.99 483.54 613.04 489.68 621.59 494.09 613.63 502.17 620.51 505.72 614.06 511.29 625.49 515.13 614.58 522.13 621.46 525.68 615.03 531.63 625.02 529.68 621.88 534.5"/><polygon class="cls-26" points="504.3 532.39 490.87 529.62 482.33 534.03 467.2 530.9 459.22 540.57 444.88 537.75 432.21 544.29 423.44 538.65 410.03 539.65 415.06 531.83 406.84 531.44 412.05 523.34 402.74 512.94 411.37 511.49 403.26 501.99 412.04 497.46 403.73 492.12 411.14 486 407.44 478.83 415.29 479.21 410.13 471.63 418.09 468.82 416.17 458.42 425.11 461.64 423.72 447.82 434.36 454.66 441.35 441.44 445.3 450.25 454.06 442.04 456.54 450.79 461.85 442.51 466.35 451.25 469.14 446.91 474.88 454.52 481.81 447.51 484.14 459.28 493.77 454.31 493.36 462.87 504.11 465.51 500.81 470.64 509.36 476.13 502.19 481.43 513.14 487.57 504.59 491.98 512.55 500.06 505.67 503.61 512.12 509.17 500.69 513.01 511.6 520.02 504.72 523.57 511.15 529.52 501.16 527.57 504.3 532.39"/><polygon class="cls-26" points="706.15 536.65 723.71 533.03 734.88 538.79 754.66 534.71 765.1 547.34 783.85 543.66 800.42 552.21 811.89 544.84 829.42 546.15 822.84 535.92 833.59 535.41 826.78 524.82 838.95 511.22 827.67 509.32 838.27 496.89 826.8 490.98 837.66 484 827.98 475.99 832.81 466.62 822.55 467.11 829.29 457.2 818.88 453.53 821.39 439.93 809.7 444.14 811.53 426.08 797.61 435.02 788.47 417.73 783.31 429.25 771.85 418.51 768.61 429.95 761.66 419.13 755.77 430.56 752.13 424.88 744.63 434.83 735.57 425.67 732.51 441.05 719.92 434.56 720.46 445.75 706.41 449.21 710.72 455.92 699.54 463.09 708.91 470.02 694.59 478.04 705.78 483.81 695.37 494.38 704.37 499.02 695.93 506.3 710.87 511.32 696.61 520.48 705.61 525.12 697.2 532.89 710.26 530.35 706.15 536.65"/><polygon class="cls-26" points="408.52 539.31 390.96 535.69 379.79 541.45 360.01 537.37 349.57 550 330.82 546.32 314.25 554.86 302.78 547.5 285.25 548.81 291.83 538.58 281.08 538.07 287.89 527.47 275.72 513.88 287 511.98 276.4 499.55 287.87 493.64 277.01 486.66 286.7 478.65 281.87 469.28 292.12 469.77 285.38 459.86 295.79 456.19 293.28 442.59 304.97 446.8 303.14 428.73 317.06 437.68 326.2 420.38 331.36 431.91 342.82 421.17 346.06 432.61 353.01 421.79 358.9 433.22 362.55 427.54 370.04 437.49 379.1 428.32 382.16 443.71 394.75 437.22 394.21 448.41 408.26 451.86 403.95 458.57 415.13 465.75 405.76 472.67 420.08 480.7 408.89 486.47 419.3 497.04 410.3 501.68 418.74 508.95 403.8 513.97 418.06 523.14 409.06 527.78 417.47 535.55 404.41 533.01 408.52 539.31"/></g><g id="Layer_14" data-name="Layer 14"><rect class="cls-7" x="860.35" y="324.58" width="13.16" height="66.92"/><rect class="cls-7" x="842.5" y="324.58" width="13.16" height="66.92"/><rect class="cls-7" x="913.02" y="324.58" width="13.16" height="66.92"/><rect class="cls-7" x="895.17" y="324.58" width="13.16" height="66.92"/><rect class="cls-7" x="1026.21" y="324.58" width="13.16" height="66.92"/><rect class="cls-7" x="1008.35" y="324.58" width="13.16" height="66.92"/><rect class="cls-7" x="1078.88" y="324.58" width="13.16" height="66.92"/><rect class="cls-7" x="1061.02" y="324.58" width="13.16" height="66.92"/><rect class="cls-7" x="1078.88" y="395.75" width="13.16" height="41.08"/><rect class="cls-7" x="1061.02" y="395.75" width="13.16" height="41.08"/><rect class="cls-7" x="1026.21" y="395.75" width="13.16" height="41.08"/><rect class="cls-7" x="1008.35" y="395.75" width="13.16" height="41.08"/><rect class="cls-7" x="913.02" y="395.75" width="13.16" height="41.08"/><rect class="cls-7" x="895.17" y="395.75" width="13.16" height="41.08"/><rect class="cls-7" x="860.35" y="395.75" width="13.16" height="41.08"/><rect class="cls-7" x="842.5" y="395.75" width="13.16" height="41.08"/><rect class="cls-7" x="49.81" y="323.69" width="13.16" height="66.92"/><rect class="cls-7" x="31.95" y="323.69" width="13.16" height="66.92"/><rect class="cls-7" x="102.48" y="323.69" width="13.16" height="66.92"/><rect class="cls-7" x="84.62" y="323.69" width="13.16" height="66.92"/><rect class="cls-7" x="215.67" y="323.69" width="13.16" height="66.92"/><rect class="cls-7" x="197.81" y="323.69" width="13.16" height="66.92"/><rect class="cls-7" x="268.33" y="323.69" width="13.16" height="66.92"/><rect class="cls-7" x="250.48" y="323.69" width="13.16" height="66.92"/><rect class="cls-7" x="268.33" y="394.86" width="13.16" height="41.08"/><rect class="cls-7" x="250.48" y="394.86" width="13.16" height="41.08"/><rect class="cls-7" x="215.67" y="394.86" width="13.16" height="41.08"/><rect class="cls-7" x="197.81" y="394.86" width="13.16" height="41.08"/><rect class="cls-7" x="102.48" y="394.86" width="13.16" height="41.08"/><rect class="cls-7" x="84.62" y="394.86" width="13.16" height="41.08"/><rect class="cls-7" x="49.81" y="394.86" width="13.16" height="41.08"/><rect class="cls-7" x="31.95" y="394.86" width="13.16" height="41.08"/><path class="cls-22" d="M561.72,581.15s25.58-87.3,52.45,1.88C625.44,620.45,626,679.94,626,679.94l31.17-10c-5.42-121.48-37.3-147.73-61.81-147.87C579,522.07,566.84,540.42,561.72,581.15Z"/><path class="cls-27" d="M610,570.48c-2.86-6.6.73-13.21,5-14.32,4.06-1.06,9.41,2.44,11.69,9,0,0-.82-10.77,3.67-11.56,3.19-.56,7,3.94,8.24,8a169.49,169.49,0,0,1,6.14,18c-2.59-5.21-6.07-8.86-8.77-8.06s-4.78,5.13-3.58,11.4c-2.78-5.94-6.49-8.61-10.81-7.35s-7.87,6.39-6.08,12.4Z"/><path class="cls-28" d="M615.1,586.42c-1.93-6.6.73-13.21,5-14.33,4.06-1.05,9.41,2.45,11.69,9-1.69-6.33,0-10.65,2.67-11.56,3.35-1.14,8.3,3.59,9.67,8l1.11,3.88c-2.45-5.54-6.48-8.77-9.17-8s-4.14,6.24-2.94,12.5c-2.79-5.94-7.14-9.71-11.45-8.46-4.46,1.3-7.1,7.84-5.31,13.85Z"/><path class="cls-22" d="M561.72,581.15s-25.58-87.3-52.45,1.88c-11.27,37.42-11.85,96.91-11.85,96.91l-31.17-10c5.42-121.48,37.3-147.73,61.81-147.87C544.41,522.07,556.59,540.42,561.72,581.15Z"/><path class="cls-27" d="M513.47,570.48c2.86-6.6-.73-13.21-5-14.32-4.06-1.06-9.41,2.44-11.69,9,0,0,.82-10.77-3.67-11.56-3.19-.56-7.05,3.94-8.24,8a169.49,169.49,0,0,0-6.14,18c2.58-5.21,6.07-8.86,8.76-8.06s4.79,5.13,3.59,11.4c2.78-5.94,6.49-8.61,10.81-7.35s7.87,6.39,6.08,12.4Z"/><path class="cls-28" d="M508.34,586.42c1.93-6.6-.73-13.21-5-14.33-4.06-1.05-9.41,2.45-11.69,9,1.69-6.33,0-10.65-2.67-11.56-3.35-1.14-8.3,3.59-9.67,8l-1.11,3.88c2.45-5.54,6.47-8.77,9.17-8s4.14,6.24,2.94,12.5c2.79-5.94,7.14-9.71,11.45-8.46s7.1,7.84,5.31,13.85Z"/></g></svg>