<svg xmlns="http://www.w3.org/2000/svg" viewBox="0 0 638.97 861.68"><defs><style>.cls-1{fill:#5e341d;}.cls-2{fill:#75482a;}.cls-3{fill:#fffbf5;}</style></defs><title>golfart</title><g id="Layer_7" data-name="Layer 7"><rect class="cls-1" x="214.72" y="146.87" width="293.55" height="602.76"/><polyline class="cls-2" points="214.72 146.87 120.63 274.8 120.63 679.35 214.72 749.63"/><rect class="cls-2" x="214.14" y="703.87" width="299.68" height="57.73"/><rect class="cls-1" x="214.14" y="717.78" width="299.68" height="10.32"/><rect class="cls-1" x="214.14" y="734.69" width="299.68" height="19.46"/><polygon class="cls-2" points="115.75 681.52 214.14 761.6 214.14 703.87 115.75 623.79 115.75 681.52"/><polygon class="cls-1" points="115.75 648.03 214.14 728.1 214.14 717.78 115.75 637.71 115.75 648.03"/><polygon class="cls-1" points="115.75 674.07 214.14 754.14 214.14 734.68 115.75 654.61 115.75 674.07"/><polygon class="cls-1" points="115.75 623.79 120.63 623.79 215.53 702.17 214.14 705.32 115.75 623.79"/><rect class="cls-2" x="214.14" y="125.16" width="300.37" height="23.36"/><polygon class="cls-1" points="214.14 125.16 115.69 266.53 116.69 286 214.14 148.52 214.14 125.16"/></g><g id="Layer_14" data-name="Layer 14"><rect class="cls-3" x="290.34" y="230.68" width="143.51" height="204.03"/></g></svg>