<svg xmlns="http://www.w3.org/2000/svg" viewBox="0 0 638.97 470.75"><defs><style>.cls-1{fill:#5e341d;}.cls-2{fill:#d69b74;}.cls-3{fill:#17a88b;}.cls-4{fill:#008e71;}</style></defs><title>golfart</title><g id="Layer_9" data-name="Layer 9"><polygon class="cls-1" points="393.69 165.13 342.62 141.69 304.9 141.69 233.32 167.87 226.82 177.26 226.82 230.02 202.38 244.13 189.6 266.27 145.42 280.52 104.98 301.47 175.36 288.81 212.5 288.81 243.19 271.1 260.84 265.02 270.62 272.7 270.62 289.28 260.35 313.4 280 347.45 301.88 360.08 293.99 328.48 309.06 302.37 339.96 280.99 352.62 283.35 372.97 313.91 372.97 351.6 354.37 383.83 393.69 365.92 415.94 327.39 402.37 272.45 420.46 272.45 441.57 286.77 473.3 305.09 501.87 301.85 462.26 278.99 445 249.08 410.29 229.04 402.37 196.07 402.37 172.96 393.69 165.13"/><polygon class="cls-2" points="390.53 175.98 367.98 182.41 334.98 188.92 332.66 177.3 326.77 187.49 324.75 174.98 316.71 188.92 285.72 188.92 235.99 181.95 241.35 172.67 306.17 147.56 340.09 147.56 384.7 168.24 390.53 175.98"/></g><g id="Layer_12" data-name="Layer 12"><polyline class="cls-3" points="308.83 302.87 313.03 278.41 308.83 250.9 319.52 269.41 324.73 291.87 326.7 265.38 344.57 234.44 338.29 263.26 339.73 281.5 351.32 268.66 351.32 245.1 361.46 274.55 361.46 297.48 337.81 305.93"/><polygon class="cls-4" points="189.6 266.27 198.9 228.78 194.25 182.78 206.97 224.52 210.03 233.71 213.13 207.85 225.41 150.05 224.82 177.26 222.14 207.85 226.82 230.02 202.38 244.13 189.6 266.27"/><polygon class="cls-3" points="260.84 265.02 260.84 249.71 255.54 238.15 256.89 252.99 250.58 268.56 248.41 258.76 249.76 247.59 242.19 260.71 240.99 272.37 260.84 265.02"/><polygon class="cls-3" points="432.1 280.35 436.68 266.35 432.1 249.93 430.59 266.66 423.94 274.81 422.08 265.14 422.08 249.93 416.61 265.14 416.61 272.45 411.01 262.76 411.01 272.45 420.61 277.99 432.1 280.35"/></g></svg>