<svg xmlns="http://www.w3.org/2000/svg" viewBox="0 0 638.97 470.75"><defs><style>.cls-1{fill:#5e341d;}.cls-2{fill:#d69b74;}.cls-3{fill:#008e71;}.cls-4{fill:#17a88b;}</style></defs><title>golfart</title><g id="Layer_9" data-name="Layer 9"><polygon class="cls-1" points="375.15 177.85 305.01 159.99 277.11 168.92 277.11 154.69 270.42 166.27 262.31 152.23 259.32 177.85 229.46 195.09 224.03 204.55 224.03 249.05 211.86 270.14 179.15 289.02 155.76 318.09 208.69 308.88 265.46 287.4 279.71 295.63 285.4 323.45 274.66 357.21 274.66 388.66 306.12 344.93 340.63 309.65 346 284.33 359.29 276.66 392.8 286.63 428.67 307.35 463.61 311.18 487.15 316.55 463.61 289.7 426.55 262.85 392.03 230.63 381.29 200.72 381.29 182.31 375.15 177.85"/><polygon class="cls-2" points="306 166.54 359.97 180.76 371.43 187.22 364.89 199.09 318.92 201.57 310.78 196.88 302.99 205.38 273.27 208.58 243.56 203.31 237.41 197.03 282.86 173.79 306 166.54"/></g><g id="Layer_12" data-name="Layer 12"><polygon class="cls-3" points="211.86 270.14 218 233.02 204.32 174.1 224.03 214.61 224.03 204.55 229.46 195.09 229.46 166.54 245.36 139 237.41 168.84 235.24 191.75 224.03 204.55 224.03 249.05 211.86 270.14"/><polygon class="cls-4" points="265.46 287.4 262.17 262.1 270.02 238.16 270.02 266.21 276.01 287.4 282.74 262.78 277.5 220.57 289.1 270.14 283.03 311.87 268.34 303.39 265.46 287.4"/><polygon class="cls-4" points="359.29 276.66 355.69 262.47 357.49 248.26 363.92 266.22 367.29 276.66 373.32 266.22 373.32 256.86 376.78 274.82 378.25 282.3 384.5 275.94 393.13 270.95 387.49 280.06 389.13 285.54 355.69 290.53 346 284.33 346 271.82 348.58 260.98 351.2 272.95 354.83 279.24 359.29 276.66"/></g></svg>